<svg width="462" height="400" viewBox="0 0 462 400" fill="none" xmlns="http://www.w3.org/2000/svg">
<path d="M122.831 322.053L122.831 376.271C122.831 388.652 132.879 398.702 145.261 398.702L199.479 398.702L200.064 356.577L199.479 322.053L162.525 321.889L122.831 322.053Z" fill="#0066DA"/>
<path d="M201.931 84.633L126.284 161.507L165.227 161.098L201.931 161.507L201.931 124.686L201.931 84.633Z" fill="#E94235"/>
<path d="M156.201 300.193L231.848 300.193L231.848 184.064L156.201 184.064L156.201 300.193Z" fill="#2684FC"/>
<path d="M319.31 227.92L353.324 257.124L394.086 291.775L401.546 228.15L394.086 165.96L354.152 199.355L319.31 227.92Z" fill="#00832D"/>
<path d="M443.049 125.791L394.086 165.961L394.086 291.774L443.253 332.101C450.613 337.866 461.38 332.611 461.38 323.256L461.38 134.455C461.38 124.996 450.357 119.767 443.049 125.791Z" fill="#00AC47"/>
<path d="M340.307 265.418L340.307 323.351L231.899 323.351L231.899 400L392.653 400C405.036 400 415.084 389.95 415.084 377.57L415.084 329.273L340.307 265.418Z" fill="#00AC47"/>
<path d="M419.222 95.5007L290.161 0L244.586 61.5902L331.568 125.953L319.317 227.918L394.073 167.198L423.917 126.867C431.279 116.917 429.176 102.866 419.222 95.5007Z" fill="#FFBA00"/>
<path d="M20.5243 393.127C25.4746 391.791 44.438 392.639 48.9587 391.599C54.0211 390.435 46.4053 359.115 56.1974 359.115C65.5313 359.115 89.2287 360.195 90.0616 358.244C93.0683 351.203 87.8177 333.235 92.5096 327.373C96.6234 322.236 112.594 324.698 118.503 324.698" stroke="white" stroke-opacity="0.9" stroke-width="8" stroke-linecap="round" stroke-linejoin="round"/>
<path d="M52.2171 229.546C56.0993 225.81 59.047 223.949 64.5102 222.433C87.5746 216.031 91.399 251.961 73.9697 261.635C51.5189 274.097 34.8853 246.187 50.6927 233.388" stroke="white" stroke-opacity="0.9" stroke-width="8" stroke-linecap="round" stroke-linejoin="round"/>
<path d="M50.1334 279.36C51.9442 290.434 45.174 317.211 45.174 327.396C45.174 335.308 40.5942 368.075 21.2725 392.433L28.5667 393.127" stroke="white" stroke-opacity="0.9" stroke-width="8" stroke-linecap="round" stroke-linejoin="round"/>
<path d="M44.4581 326.233C64.852 320.868 73.4999 321.915 76.0168 326.238C78.1145 329.842 67.905 349.989 69.3344 357.749C69.7133 359.808 75.4471 358.296 78.1145 358.997" stroke="white" stroke-opacity="0.9" stroke-width="8" stroke-linecap="round" stroke-linejoin="round"/>
<path d="M49.6935 280.119C36.2489 296.222 27.5321 316.408 22.0201 337.002" stroke="white" stroke-opacity="0.9" stroke-width="8" stroke-linecap="round" stroke-linejoin="round"/>
<path d="M50.4417 279.36C60.9058 289.909 56.6604 312.36 86.342 304.13" stroke="white" stroke-opacity="0.9" stroke-width="8" stroke-linecap="round" stroke-linejoin="round"/>
<path fill-rule="evenodd" clip-rule="evenodd" d="M12.7782 348.341V346.424C12.7782 344.899 13.384 343.437 14.4624 342.358C15.5408 341.28 17.0034 340.674 18.5284 340.674H22.3619C23.8869 340.674 25.3495 341.28 26.4279 342.358C27.5063 343.437 28.1121 344.899 28.1121 346.424V348.341H30.131C30.8973 348.341 31.6558 348.495 32.362 348.792C33.0681 349.09 33.7077 349.526 34.2431 350.074L39.2521 355.203C40.3025 356.276 40.8903 357.72 40.8903 359.223V373.259C40.8903 374.784 40.2845 376.246 39.2061 377.325C38.1277 378.403 36.6652 379.009 35.1401 379.009H5.7502C4.22515 379.009 2.76257 378.403 1.68419 377.325C0.605823 376.246 0 374.784 0 373.259L0 359.223C0 357.72 0.587798 356.279 1.63561 355.203L6.64723 350.074C7.18291 349.525 7.82288 349.089 8.5295 348.792C9.23611 348.494 9.9951 348.341 10.7618 348.341H12.7782ZM16.6117 346.424C16.6117 345.916 16.8136 345.428 17.1731 345.069C17.5325 344.71 18.0201 344.508 18.5284 344.508H22.3619C22.8702 344.508 23.3578 344.71 23.7172 345.069C24.0767 345.428 24.2786 345.916 24.2786 346.424V348.341H16.6117V346.424ZM9.38944 352.752C9.5681 352.569 9.78156 352.424 10.0173 352.325C10.2529 352.225 10.5061 352.174 10.7618 352.175H30.1285C30.3842 352.174 30.6374 352.225 30.8731 352.325C31.1088 352.424 31.3222 352.569 31.5009 352.752L36.5099 357.884C36.8601 358.242 37.0564 358.722 37.0568 359.223V361.119H26.8343V360.48C26.8343 358.717 25.4031 357.286 23.6397 357.286H17.2506C15.4872 357.286 14.056 358.717 14.056 360.48V361.119H3.83347V359.223C3.83318 358.723 4.02854 358.242 4.37782 357.884L9.38944 352.752ZM14.056 364.953H3.83347V373.259C3.83347 374.317 4.69216 375.175 5.7502 375.175H35.1401C35.6485 375.175 36.136 374.973 36.4954 374.614C36.8549 374.255 37.0568 373.767 37.0568 373.259V364.953H26.8343V365.592C26.8343 367.355 25.4031 368.786 23.6397 368.786H17.2506C15.4872 368.786 14.056 367.355 14.056 365.592V364.953ZM17.8895 364.953V361.119H23.0008V364.953H17.8895Z" fill="#D9D9D9"/>
<path d="M95.2207 295.809C96.0009 293.342 96.8083 290.791 99.0366 287.27C99.1391 287.107 99.169 286.908 99.117 286.722C99.065 286.536 98.9371 286.382 98.7645 286.296L98.6547 286.241L99.3576 283.652L101.607 281.961C101.691 281.898 101.76 281.815 101.807 281.721L108.801 267.693C108.969 267.356 108.833 266.947 108.495 266.779L103.616 264.346C103.279 264.178 102.87 264.316 102.702 264.652L95.7081 278.68C95.6609 278.774 95.6361 278.879 95.6362 278.984L95.6397 281.798L93.995 283.918L93.8853 283.863C93.7127 283.777 93.5115 283.768 93.3323 283.839C93.1532 283.909 93.0116 284.053 92.9433 284.233C91.4725 288.131 89.921 290.311 88.4199 292.419C86.9371 294.503 85.5359 296.47 84.4187 299.811C84.3109 300.133 84.4572 300.485 84.7609 300.636L90.8599 303.677C91.1637 303.829 91.5333 303.734 91.7256 303.453C93.7211 300.551 94.449 298.248 95.2207 295.809ZM103.618 265.87L107.277 267.695L100.659 280.969L98.3511 282.703C98.2296 282.794 98.1426 282.923 98.1028 283.07L97.4106 285.621L95.2393 284.538L96.8602 282.45C96.9533 282.33 97.0034 282.182 97.0032 282.031L96.9997 279.144L103.618 265.87ZM90.9315 302.19L85.9059 299.684C86.928 296.866 88.1944 295.086 89.5306 293.21C90.9221 291.254 92.4886 289.055 93.9456 285.416L97.4885 287.183C95.4595 290.536 94.6449 293.111 93.9213 295.399C93.2261 297.595 92.5671 299.678 90.9315 302.19Z" fill="#D9D9D9"/>
</svg>
