<svg width="640" height="480" viewBox="0 0 640 480" fill="none" xmlns="http://www.w3.org/2000/svg">
<path d="M389.195 211.14L412.524 207.42" stroke="white" stroke-width="8"/>
<path d="M381.9 189.33L396.489 180.6" stroke="white" stroke-width="8"/>
<path d="M367.017 173.19L376.821 151.53" stroke="white" stroke-width="8"/>
<path d="M339.139 170.07L339.021 152.88" stroke="white" stroke-width="8"/>
<path d="M312.088 174.27L304.204 151.53" stroke="white" stroke-width="8"/>
<path d="M293.484 189.09L278.63 180.87" stroke="white" stroke-width="8"/>
<path d="M286.957 209.91L264.071 205.98" stroke="white" stroke-width="8"/>
<path d="M317.788 274.41C317.788 258.93 308.367 245.94 303.288 236.34C300.466 231.009 298.985 225.053 298.977 219C298.977 198.63 317.315 182.1 337.367 182.1" stroke="white" stroke-width="8"/>
<path d="M356.946 274.41C356.946 258.93 366.367 245.94 371.446 236.34C374.268 231.009 375.749 225.053 375.758 219C375.758 198.63 357.419 182.1 337.367 182.1" stroke="white" stroke-width="8"/>
<path d="M359.781 273.57H316.4C312.942 273.57 310.139 276.417 310.139 279.93V279.96C310.139 283.473 312.942 286.32 316.4 286.32H359.781C363.239 286.32 366.042 283.473 366.042 279.96V279.93C366.042 276.417 363.239 273.57 359.781 273.57Z" stroke="white" stroke-width="8"/>
<path d="M356.356 286.29H319.826C316.368 286.29 313.565 289.137 313.565 292.65V292.68C313.565 296.193 316.368 299.04 319.826 299.04H356.356C359.813 299.04 362.616 296.193 362.616 292.68V292.65C362.616 289.137 359.813 286.29 356.356 286.29Z" stroke="white" stroke-width="8"/>
<path d="M347.615 299.04V301.56C347.718 302.893 347.549 304.232 347.118 305.495C346.687 306.758 346.004 307.917 345.11 308.899C344.217 309.881 343.134 310.664 341.928 311.2C340.723 311.735 339.421 312.012 338.105 312.012C336.79 312.012 335.488 311.735 334.283 311.2C333.077 310.664 331.994 309.881 331.101 308.899C330.207 307.917 329.524 306.758 329.093 305.495C328.662 304.232 328.493 302.893 328.596 301.56V299.04" stroke="white" stroke-width="8"/>
<path d="M312.915 216.75C313.063 213.797 313.782 210.902 315.031 208.231C316.281 205.56 318.037 203.166 320.198 201.184C322.359 199.203 324.884 197.675 327.627 196.686C330.37 195.696 333.279 195.266 336.186 195.42" stroke="white" stroke-width="8"/>
<path d="M466.108 321.663C466.019 318.685 465.931 315.707 465.904 312.719C465.726 298.467 465.158 286.824 464.065 276.072C463.541 270.466 462.759 265.454 461.693 260.56L461.844 261.387C461.213 257.437 459.73 253.919 457.598 250.914L457.651 250.986C456.843 249.978 455.777 249.213 454.542 248.809L454.497 248.8C451.797 247.666 448.661 247 445.365 247C440.648 247 436.242 248.359 432.51 250.716L432.617 250.653C426.425 255.521 422.268 262.8 421.521 271.078L421.512 271.195L416.982 316.247C414.388 314.861 411.314 314.042 408.045 314.042C400.396 314.042 393.778 318.514 390.606 325.028L390.553 325.145L376.757 349.376L350.523 374.759C350.07 375.191 349.679 375.686 349.368 376.235L349.351 376.262L341.96 389.218L338.131 386.978C337.997 386.897 337.838 386.906 337.695 386.834C336.869 386.42 335.892 386.177 334.861 386.177C333.831 386.177 332.845 386.42 331.983 386.861L332.019 386.843C331.885 386.906 331.734 386.906 331.601 386.978L330.873 387.401L330.748 387.473L327.772 389.209L320.39 376.253C320.061 375.677 319.67 375.182 319.217 374.75L292.984 349.367L279.161 325.136C276.469 320.053 271.948 316.265 266.511 314.627L266.36 314.591C264.938 314.195 263.295 313.961 261.607 313.961C258.356 313.961 255.3 314.807 252.643 316.292L252.741 316.247L248.237 271.294C247.491 262.863 243.325 255.548 237.168 250.698L237.106 250.653C233.481 248.359 229.084 247 224.367 247C221.08 247 217.944 247.657 215.083 248.863L215.243 248.8C213.964 249.213 212.889 249.978 212.099 250.977L212.09 250.986C209.949 254.018 208.438 257.644 207.826 261.576L207.808 261.72C206.919 265.697 206.164 270.601 205.702 275.586L205.667 276.081C204.565 286.851 203.988 298.494 203.828 312.719C203.792 315.662 203.704 318.604 203.624 321.555C203.455 324.39 203.357 327.692 203.357 331.03C203.357 337.337 203.704 343.564 204.388 349.691L204.316 348.944C207.497 371.268 218.388 390.559 234.112 404.344L234.228 404.442C243.529 411.911 251.737 420.063 259.022 429.006L259.244 429.285L253.94 432.389C251.933 433.577 250.609 435.755 250.609 438.238C250.609 439.48 250.938 440.649 251.515 441.648L251.497 441.612L265.756 466.635C266.635 468.164 268.057 469.298 269.753 469.766L269.798 469.775C270.304 469.919 270.89 470 271.495 470H271.521H271.539C272.756 470 273.902 469.667 274.888 469.082L274.853 469.1L334.87 434L394.862 469.1C395.812 469.667 396.958 470 398.175 470H398.193C398.193 470 398.211 470 398.228 470C398.824 470 399.41 469.919 399.961 469.757L399.916 469.766C401.658 469.289 403.088 468.155 403.958 466.653L403.976 466.617L418.234 441.594C418.794 440.622 419.123 439.462 419.123 438.22C419.123 435.728 417.79 433.559 415.818 432.389L415.783 432.371L410.479 429.276C418.048 419.991 426.31 411.794 435.353 404.541L435.691 404.281C451.433 390.424 462.244 371.187 465.327 349.43L465.38 348.953C466.002 343.564 466.357 337.328 466.357 331.003C466.357 327.719 466.259 324.462 466.073 321.222L466.091 321.672L466.108 321.663ZM242.694 394.032C229.439 382.218 220.298 365.95 217.58 347.55L217.526 347.127C216.985 342.286 216.683 336.671 216.683 330.985C216.683 327.809 216.78 324.659 216.967 321.537L216.949 321.969C217.047 318.937 217.136 315.905 217.162 312.872C217.313 299.07 217.873 287.823 218.93 277.475C219.383 272.491 220.067 268.028 221.018 263.655L220.884 264.393C221.115 263.331 221.409 262.026 221.755 260.982C222.635 260.713 223.647 260.551 224.696 260.551C226.534 260.551 228.258 261.036 229.75 261.882L229.697 261.855C232.664 264.519 234.636 268.28 234.983 272.5V272.563L241.317 335.727C241.423 336.725 241.725 337.643 242.196 338.444L242.179 338.408L245.75 344.67L270.757 388.552C271.921 390.64 274.089 392.017 276.576 392.017C280.254 392.017 283.239 388.993 283.239 385.268C283.239 383.991 282.883 382.794 282.279 381.768L282.297 381.795L257.29 337.913C254.482 332.973 256.144 329.653 258.649 328.196C261.101 326.729 264.814 326.927 267.63 331.867L281.924 356.934C282.253 357.51 282.643 358.005 283.088 358.437L309.321 383.829L316.224 395.94L270.819 422.483C262.478 411.803 253.239 402.454 243.022 394.293L242.667 394.023L242.694 394.032ZM395.759 454.029L338.237 420.377C338.095 420.296 337.935 420.296 337.784 420.225C337.269 419.955 336.665 419.748 336.025 419.631L335.99 419.622C335.768 419.595 335.51 419.568 335.243 419.568C335.119 419.559 334.977 419.559 334.835 419.559C334.364 419.559 333.902 419.613 333.458 419.703L333.502 419.694C333.174 419.784 332.889 419.874 332.623 419.982L332.667 419.964C332.259 420.063 331.912 420.18 331.575 420.323L331.619 420.305L273.982 454.011L266.386 440.694L334.888 400.645L403.372 440.694L395.759 454.029ZM452.197 347.127C449.469 365.86 440.408 382.074 427.331 393.78L427.251 393.852C416.609 402.337 407.308 411.749 399.17 422.141L398.904 422.492L353.499 395.949L360.411 383.838L386.644 358.446C387.097 358.014 387.488 357.519 387.808 356.97L387.826 356.943L402.084 331.876C403.07 329.887 404.749 328.367 406.792 327.62L406.854 327.602C407.272 327.485 407.761 327.422 408.258 327.422C409.297 327.422 410.275 327.71 411.119 328.214L411.092 328.196C413.588 329.653 415.258 332.973 412.424 337.913L387.426 381.795C386.857 382.767 386.52 383.937 386.52 385.196C386.52 388.93 389.505 391.954 393.191 391.954C395.661 391.954 397.811 390.595 398.966 388.579L398.984 388.543L427.544 338.399C428.006 337.625 428.317 336.716 428.406 335.736V335.709L434.776 272.437C435.167 268.226 437.094 264.528 439.982 261.891L439.999 261.882C441.447 261.045 443.189 260.551 445.036 260.551C446.085 260.551 447.097 260.713 448.057 261.009L447.986 260.991C448.297 261.945 448.625 263.187 448.883 264.447L448.927 264.681C449.718 268.235 450.384 272.608 450.784 277.052L450.811 277.475C451.85 287.796 452.428 299.043 452.579 312.881C452.614 315.95 452.703 319.018 452.783 322.086C452.961 324.785 453.058 327.935 453.058 331.102C453.058 336.752 452.747 342.322 452.134 347.811L452.197 347.136V347.127Z" fill="white"/>
<path fill-rule="evenodd" clip-rule="evenodd" d="M519.88 293.047C533.95 255.969 515.64 214.374 478.988 200.142C442.338 185.91 401.218 204.428 387.149 241.505L398.237 245.811C409.956 214.927 444.206 199.502 474.732 211.356C505.262 223.211 520.511 257.857 508.792 288.741L519.88 293.047Z" fill="white" fill-opacity="0.5"/>
<g clip-path="url(#clip0_1_111)">
<path d="M280.673 46.5557C274.547 41.8924 271.485 39.5608 268.9 40.7068C266.316 41.8528 265.922 45.7174 265.133 53.4468L264.929 55.4465C264.705 57.6429 264.593 58.7413 264.077 59.6618C263.561 60.5824 262.7 61.2211 260.978 62.498L259.41 63.6608C253.351 68.1553 250.321 70.4027 250.627 73.3228C250.934 76.2427 254.373 77.9014 261.253 81.2192L263.033 82.0776C264.988 83.0205 265.965 83.4916 266.663 84.302C267.36 85.1124 267.698 86.1695 268.374 88.2839L268.99 90.2091C271.371 97.6503 272.561 101.371 275.335 102.029C278.108 102.688 280.629 99.8488 285.669 94.1699M296.174 89.5117C303.705 89.616 307.47 89.6681 308.878 87.1552C310.286 84.6424 308.404 81.2286 304.639 74.401L303.665 72.6346C302.596 70.6946 302.061 69.7244 301.948 68.6547C301.836 67.5852 302.159 66.5369 302.805 64.4407L303.394 62.5326C305.668 55.1557 306.805 51.4675 304.901 49.2556C302.998 47.0441 299.314 47.7736 291.947 49.2331" stroke="#FDF39B" stroke-width="8" stroke-linecap="round"/>
<path d="M268.814 40.5458C255.107 34.6429 236.463 35.3761 215.012 55.0365C227.358 52.2462 242.368 58.1448 254.027 68.026" stroke="#FDF39B" stroke-width="8" stroke-linecap="round" stroke-linejoin="round"/>
</g>
<path d="M568.862 257.951H550.799L565.653 243.13C566.604 242.181 566.604 240.64 565.653 239.573C564.702 238.624 563.158 238.624 562.088 239.573L547.234 254.394V236.49C547.234 235.067 546.164 234 544.738 234C543.312 234 542.243 235.067 542.243 236.49V254.512L527.388 239.573C526.438 238.624 524.893 238.624 523.823 239.573C522.873 240.521 522.873 242.063 523.823 243.13L538.678 257.951H520.853C519.427 257.951 518.357 259.018 518.357 260.441C518.357 261.864 519.427 262.931 520.853 262.931H538.915L524.061 277.752C523.11 278.7 523.11 280.242 524.061 281.309C524.536 281.783 525.131 282.02 525.844 282.02C526.438 282.02 527.151 281.783 527.626 281.309L542.48 266.488V284.51C542.48 285.933 543.55 287 544.976 287C546.402 287 547.471 285.933 547.471 284.51V266.488L562.326 281.309C562.801 281.783 563.395 282.02 564.108 282.02C564.702 282.02 565.415 281.783 565.891 281.309C566.841 280.36 566.841 278.819 565.891 277.752L550.799 262.931H568.862C570.288 262.931 571.357 261.864 571.357 260.441C571.357 259.018 570.169 257.951 568.862 257.951Z" fill="#FF75F1"/>
<path fill-rule="evenodd" clip-rule="evenodd" d="M542.468 323.482C541.007 322.874 539.154 322.874 535.449 322.874C531.743 322.874 529.89 322.874 528.429 323.482C526.48 324.292 524.932 325.847 524.125 327.803C523.757 328.696 523.612 329.735 523.556 331.249C523.473 333.476 522.336 335.536 520.414 336.65C518.492 337.764 516.146 337.723 514.184 336.682C512.849 335.973 511.881 335.579 510.927 335.453C508.836 335.177 506.721 335.746 505.047 337.035C503.792 338.002 502.866 339.612 501.013 342.834C499.161 346.056 498.234 347.667 498.028 349.241C497.752 351.341 498.319 353.464 499.603 355.144C500.189 355.911 501.013 356.555 502.291 357.361C504.17 358.547 505.38 360.566 505.379 362.794C505.379 365.022 504.17 367.042 502.291 368.227C501.013 369.034 500.189 369.678 499.603 370.445C498.319 372.125 497.752 374.248 498.027 376.347C498.234 377.922 499.16 379.533 501.013 382.754C502.866 385.976 503.792 387.587 505.047 388.554C506.72 389.843 508.835 390.412 510.926 390.135C511.881 390.009 512.849 389.615 514.184 388.907C516.146 387.866 518.492 387.824 520.414 388.938C522.336 390.052 523.473 392.113 523.556 394.34C523.612 395.854 523.757 396.893 524.125 397.786C524.932 399.742 526.48 401.297 528.429 402.107C529.89 402.715 531.743 402.715 535.449 402.715C539.154 402.715 541.007 402.715 542.468 402.107C544.417 401.297 545.965 399.742 546.772 397.786C547.141 396.893 547.285 395.854 547.341 394.339C547.424 392.113 548.561 390.052 550.483 388.938C552.405 387.824 554.751 387.866 556.713 388.907C558.048 389.615 559.016 390.009 559.971 390.135C562.062 390.412 564.177 389.843 565.85 388.554C567.105 387.587 568.031 385.976 569.884 382.754C571.737 379.533 572.663 377.922 572.87 376.347C573.145 374.248 572.578 372.125 571.294 370.445C570.708 369.678 569.884 369.033 568.606 368.227C566.727 367.042 565.518 365.022 565.518 362.794C565.518 360.566 566.727 358.547 568.606 357.362C569.885 356.555 570.708 355.911 571.295 355.144C572.578 353.464 573.145 351.341 572.87 349.241C572.663 347.667 571.737 346.056 569.884 342.834C568.032 339.613 567.105 338.002 565.85 337.035C564.177 335.746 562.062 335.177 559.971 335.453C559.016 335.58 558.048 335.973 556.714 336.682C554.752 337.723 552.405 337.765 550.483 336.651C548.562 335.537 547.424 333.476 547.341 331.249C547.285 329.734 547.141 328.696 546.772 327.803C545.965 325.847 544.417 324.292 542.468 323.482Z" fill="#D5D5D5"/>
<path d="M547.377 362.794C547.377 369.409 542.036 374.77 535.448 374.77C528.86 374.77 523.519 369.409 523.519 362.794C523.519 356.18 528.86 350.818 535.448 350.818C542.036 350.818 547.377 356.18 547.377 362.794Z" fill="black"/>
<circle cx="206.857" cy="58.5" r="7.5" fill="white"/>
<ellipse cx="474.357" cy="149.5" rx="24" ry="23.5" fill="#94FFC5"/>
<path d="M459.357 149.5L469.024 159L488.357 140" stroke="black" stroke-width="3" stroke-linecap="round" stroke-linejoin="round"/>
<line y1="-2.5" x2="36.7139" y2="-2.5" transform="matrix(-0.128984 0.991647 -0.991258 -0.131941 450.604 192.575)" stroke="white" stroke-width="5"/>
<line y1="-2.5" x2="26.3652" y2="-2.5" transform="matrix(0.279604 0.960115 -0.958349 0.285602 429.768 204.072)" stroke="white" stroke-width="5"/>
<line y1="-2.5" x2="19.2668" y2="-2.5" transform="matrix(-0.445025 0.895518 -0.891361 -0.453295 466.705 210.778)" stroke="white" stroke-width="5"/>
<line y1="-2.5" x2="36.7139" y2="-2.5" transform="matrix(-0.128984 0.991647 -0.991258 -0.131941 224.248 198.323)" stroke="white" stroke-width="5"/>
<line y1="-2.5" x2="26.3652" y2="-2.5" transform="matrix(0.279604 0.960115 -0.958349 0.285602 203.412 209.82)" stroke="white" stroke-width="5"/>
<line y1="-2.5" x2="19.2668" y2="-2.5" transform="matrix(-0.445025 0.895518 -0.891361 -0.453295 240.349 216.527)" stroke="white" stroke-width="5"/>
<g clip-path="url(#clip1_1_111)">
<path d="M214.213 136.689C216.297 137.333 218.503 136.147 219.14 134.038C219.777 131.93 218.604 129.698 216.52 129.053C214.436 128.409 212.23 129.596 211.593 131.704C210.955 133.812 212.128 136.044 214.213 136.689Z" stroke="#CF93FF" stroke-width="5"/>
<path d="M186.354 133.291L190.543 131.388C192.722 130.397 195.288 131.286 196.409 133.42L202.029 144.112C202.929 145.825 204.916 146.635 206.739 146.032L207.423 145.806C210.046 144.939 212.913 146.02 214.335 148.413L218.744 155.831" stroke="#CF93FF" stroke-width="5" stroke-linecap="round"/>
<path d="M224.38 144.008C221.661 153.006 220.301 157.505 216.693 159.446C213.085 161.386 208.637 160.011 199.742 157.26C190.847 154.509 186.4 153.133 184.481 149.483C182.563 145.833 183.923 141.334 186.642 132.336C189.362 123.338 190.721 118.839 194.329 116.898C197.938 114.957 202.385 116.333 211.28 119.084C220.175 121.835 224.623 123.211 226.541 126.86C227.817 129.287 227.643 132.09 226.584 136.34" stroke="#CF93FF" stroke-width="5" stroke-linecap="round"/>
</g>
<g clip-path="url(#clip2_1_111)">
<path d="M68.357 240.254L69.1382 243.465L96.0954 236.626L95.3142 233.414L68.357 240.254Z" fill="#B6F2FC"/>
<path d="M111.626 204.47L145.014 263.53H78.2374L111.626 204.47Z" fill="white"/>
<path d="M162.357 236.334V245.202L135.955 249.281L131.675 247.737L122.819 230.089L162.357 236.334Z" fill="#F4BD64"/>
<path d="M162.357 245.202V254.068L139.022 252.928H139.019L131.675 247.737L133.868 243.812L162.357 245.202Z" fill="#4EB79B"/>
<path d="M162.357 227.468V236.334L128.711 234.693L119.147 232.515L123.557 225.575L162.357 227.468Z" fill="#E88158"/>
<path d="M139.019 252.928L139.203 253.252L89.2653 235.418L123.557 225.575L128.711 234.693L133.865 243.812H133.868L139.019 252.928Z" fill="#B6F2FC"/>
</g>
<path fill-rule="evenodd" clip-rule="evenodd" d="M162.268 104.234L147.051 82.2294L99.7622 115.755L114.98 137.76L162.268 104.234ZM191.068 67.4194L154.326 77.0716L169.543 99.0764L191.068 67.4194ZM72.0965 146.301L77.169 153.636C81.1761 159.72 85.4352 158.996 89.5167 155.813L107.705 142.918L92.487 120.913L74.2991 133.808C69.8726 136.908 67.9788 140.284 72.0965 146.301Z" fill="white"/>
<defs>
<clipPath id="clip0_1_111">
<rect width="95.4926" height="95.0283" fill="white" transform="matrix(0.532896 0.846181 -0.840565 0.54171 283.289 0)"/>
</clipPath>
<clipPath id="clip1_1_111">
<rect width="47.4021" height="47.8575" fill="white" transform="matrix(0.955353 0.295468 -0.289302 0.957238 189.791 108.263)"/>
</clipPath>
<clipPath id="clip2_1_111">
<rect width="94" height="96" fill="white" transform="translate(68.3571 186)"/>
</clipPath>
</defs>
</svg>
