<svg width="512" height="519" viewBox="0 0 512 519" fill="none" xmlns="http://www.w3.org/2000/svg">
<g filter="url(#filter0_d_2_12)">
<circle cx="256" cy="279" r="200" fill="#D9D9D9"/>
<path d="M336 16H176C149.49 16 128 37.4903 128 64V448C128 474.51 149.49 496 176 496H336C362.51 496 384 474.51 384 448V64C384 37.4903 362.51 16 336 16Z" fill="#D9D9D9" stroke="black" stroke-width="16" stroke-linecap="round" stroke-linejoin="round"/>
<path d="M176 16H200C202.122 16 204.157 16.8429 205.657 18.3431C207.157 19.8434 208 21.8783 208 24C208 28.2435 209.686 32.3131 212.686 35.3137C215.687 38.3143 219.757 40 224 40H288C292.243 40 296.313 38.3143 299.314 35.3137C302.314 32.3131 304 28.2435 304 24C304 21.8783 304.843 19.8434 306.343 18.3431C307.843 16.8429 309.878 16 312 16H336" stroke="black" stroke-width="16" stroke-linecap="round" stroke-linejoin="round"/>
<path d="M264 180L263.4 180.2L268.6 187.2L291 199.2V194.2L264 180ZM261.6 181.2L260 182V207H267V188.4L261.6 181.2ZM269 189.6V206L273 203.4V200C273 199.4 273.4 199 274 199C274.6 199 275 199.4 275 200V204C275 204.4 274.8 204.6 274.6 204.8L269 208.6V212C269 212 269 212 269 212.2V212.4V215.6L274.6 219.4C274.8 219.6 275 220 275 220.2V224.2C275 225.6 273 225.6 273 224.2V220.8L269 218.2V234.6L292.4 222L291.6 221.2H278C276.8 221.2 276.6 219.4 277.8 219.2C277.8 219.2 277.8 219.2 278 219.2H292C292.2 219.2 292.6 219.4 292.8 219.4L294.6 221H299.2V216.8L280 213C278.8 213 278.6 211.4 279.6 211C279.6 211 279.8 211 280 211L292.2 208.2C291.6 207.6 291.2 206.8 291.2 206V205H278C276.6 205 276.6 203 278 203H291V201.6L269 189.6ZM294 191C293.4 191 293 191.4 293 192V206C293 206.6 293.4 207 294 207H297.8H298C298.6 207 299 206.6 299 206V194V192C299 191.4 298.6 191 298 191H294ZM332 192L309 195V207H329.8L335.6 205C335.6 205 335.8 205 336 205V197L320.2 199C318.8 199.2 318.6 197.2 320 197L336 195V194L332 192ZM302 193C301.4 193 301 193.4 301 194V206V227C301 227.6 300.6 228 300 228C299.6 228 299.2 227.8 299 227.4L291 231.8L292.8 235.6C292.8 235.8 293 236 292.8 236.2L291 247.4L296 249H299.6L304.6 247.4L302.8 236.2C302.8 236 302.8 235.6 303 235.4L306.8 229.6V208V194C306.8 193.4 306.4 193 305.8 193H302ZM336 207L331 208.6V212V212.2V215.4L336 217V212V207ZM299 208.8C298.8 208.8 298.6 209 298.2 209L284.8 212L299 214.8V208.8ZM260 209V212V215H267V212.2V212V209H260ZM309 209V215H329V212V211.8V209H309ZM260 217V242L261.6 242.8L267 235.6V217H260ZM309 217V227.4L332 232L336 230V229C336 229 336 229 335.8 229L319.8 227C318.6 226.8 318.6 225 319.8 225H320L335.8 227V219C335.6 219 335.6 219 335.4 219L329.6 217H309ZM294.2 223L268.8 236.8L268.6 237L263.4 243.8L264 244L298 226H299V223H294.2Z" fill="black"/>
<path d="M198 183C198 181.337 196.663 180 195 180C193.337 180 192 181.337 192 183V188C187.588 188 184 191.588 184 196H179C177.337 196 176 197.337 176 199C176 200.663 177.337 202 179 202H184V209H179C177.337 209 176 210.337 176 212C176 213.663 177.337 215 179 215H184V222H179C177.337 222 176 223.337 176 225C176 226.663 177.337 228 179 228H184C184 232.412 187.588 236 192 236V241C192 242.663 193.337 244 195 244C196.663 244 198 242.663 198 241V236H205V241C205 242.663 206.337 244 208 244C209.663 244 211 242.663 211 241V236H218V241C218 242.663 219.337 244 221 244C222.663 244 224 242.663 224 241V236C228.412 236 232 232.412 232 228H237C238.663 228 240 226.663 240 225C240 223.337 238.663 222 237 222H232V215H237C238.663 215 240 213.663 240 212C240 210.337 238.663 209 237 209H232V202H237C238.663 202 240 200.663 240 199C240 197.337 238.663 196 237 196H232C232 191.588 228.412 188 224 188V183C224 181.337 222.663 180 221 180C219.337 180 218 181.337 218 183V188H211V183C211 181.337 209.663 180 208 180C206.337 180 205 181.337 205 183V188H198V183ZM196 196H220C222.213 196 224 197.787 224 200V224C224 226.213 222.213 228 220 228H196C193.787 228 192 226.213 192 224V200C192 197.787 193.787 196 196 196ZM220 200H196V224H220V200Z" fill="black"/>
<path d="M293.5 312.5V318.75H243.5V312.5H293.5ZM215.375 300C210.199 300 206 304.199 206 309.375V321.875C206 327.051 210.199 331.25 215.375 331.25H296.625C301.801 331.25 306 327.051 306 321.875V309.375C306 304.199 301.801 300 296.625 300H215.375Z" fill="black"/>
</g>
<defs>
<filter id="filter0_d_2_12" x="-10" y="-5" width="532" height="532" filterUnits="userSpaceOnUse" color-interpolation-filters="sRGB">
<feFlood flood-opacity="0" result="BackgroundImageFix"/>
<feColorMatrix in="SourceAlpha" type="matrix" values="0 0 0 0 0 0 0 0 0 0 0 0 0 0 0 0 0 0 127 0" result="hardAlpha"/>
<feOffset dy="5"/>
<feGaussianBlur stdDeviation="5"/>
<feComposite in2="hardAlpha" operator="out"/>
<feColorMatrix type="matrix" values="0 0 0 0 0 0 0 0 0 0 0 0 0 0 0 0 0 0 0.26 0"/>
<feBlend mode="normal" in2="BackgroundImageFix" result="effect1_dropShadow_2_12"/>
<feBlend mode="normal" in="SourceGraphic" in2="effect1_dropShadow_2_12" result="shape"/>
</filter>
</defs>
</svg>
