<svg width="400" height="400" viewBox="0 0 400 400" fill="none" xmlns="http://www.w3.org/2000/svg">
<rect width="400" height="400" fill="none"/>
<g clip-path="url(#clip0_0_1)">
<path d="M184.379 26.3156L177.164 38.9364C160.814 67.5792 131.569 82.3482 102.478 76.6196L56.7306 67.7583C28.5605 62.2982 2.92341 87.6292 3.00017 120.927C3.00017 135.158 7.91267 148.853 16.5095 158.968L38.9228 185.104C47.3662 194.95 52.1252 208.287 52.1252 222.251C52.1252 236.393 47.2127 249.909 38.539 259.844L28.4838 271.302C19.9636 280.969 15.2047 294.216 15.2047 308.09C15.2047 341.029 41.3791 365.554 69.0119 358.394L116.832 346.042C122.742 344.52 128.883 343.714 134.947 343.714H142.623C163.501 343.714 183.842 352.039 200.191 367.255L223.832 389.364C231.892 396.883 241.947 401 252.233 401C277.332 401 297.75 377.28 297.75 347.921V325.365C297.75 294.126 314.176 266.11 339.123 254.832L367.446 242.032C384.64 234.245 396 214.911 396 193.429C396 168.277 380.572 146.616 359.31 142.14L337.818 137.575C309.801 131.578 287.618 106.695 281.324 74.2924L275.874 46.0971C270.731 19.1549 250.16 0 226.519 0C209.632 0 193.82 9.84598 184.379 26.3156ZM125.736 143.214C132.25 143.214 138.498 146.232 143.104 151.604C147.711 156.975 150.298 164.261 150.298 171.857C150.298 179.454 147.711 186.739 143.104 192.111C138.498 197.482 132.25 200.5 125.736 200.5C119.221 200.5 112.974 197.482 108.368 192.111C103.761 186.739 101.173 179.454 101.173 171.857C101.173 164.261 103.761 156.975 108.368 151.604C112.974 146.232 119.221 143.214 125.736 143.214ZM223.986 157.536C223.986 153.737 225.28 150.095 227.583 147.409C229.886 144.723 233.01 143.214 236.267 143.214C239.524 143.214 242.648 144.723 244.951 147.409C247.254 150.095 248.548 153.737 248.548 157.536C248.548 161.334 247.254 164.977 244.951 167.662C242.648 170.348 239.524 171.857 236.267 171.857C233.01 171.857 229.886 170.348 227.583 167.662C225.28 164.977 223.986 161.334 223.986 157.536ZM223.986 229.143C230.5 229.143 236.748 232.161 241.354 237.532C245.96 242.904 248.548 250.189 248.548 257.786C248.548 265.382 245.96 272.668 241.354 278.039C236.748 283.411 230.5 286.429 223.986 286.429C217.471 286.429 211.224 283.411 206.618 278.039C202.011 272.668 199.423 265.382 199.423 257.786C199.423 250.189 202.011 242.904 206.618 237.532C211.224 232.161 217.471 229.143 223.986 229.143Z" fill="white"/>
<circle cx="199" cy="205" r="100" fill="#D9D9D9"/>
<path d="M252.063 206.562L202.578 185.676C201.621 185.272 200.568 185.062 199.5 185.062C198.432 185.062 197.379 185.272 196.422 185.676L146.938 206.562C145.04 207.357 143.441 208.589 142.32 210.121C141.199 211.652 140.601 213.421 140.594 215.227V259.937C140.594 265.287 145.731 269.625 152.069 269.625H246.942C253.28 269.625 258.418 265.287 258.418 259.937V215.227C258.409 213.42 257.809 211.65 256.686 210.119C255.563 208.587 253.962 207.355 252.063 206.562Z" fill="#784BF6" stroke="black" stroke-width="5" stroke-linecap="round" stroke-linejoin="round"/>
<path d="M239.525 254.125L202.918 229.775C201.725 228.982 200.257 228.551 198.745 228.551C197.234 228.551 195.765 228.982 194.572 229.775L157.963 254.125M214.603 236.445L253.119 211.5M144.369 211.5L183.734 236.93" stroke="black" stroke-width="5" stroke-linecap="round" stroke-linejoin="round"/>
<path d="M330.95 112.821C332.429 113.846 333.206 115.618 332.927 117.39L323.554 178.315C323.335 179.736 322.471 180.98 321.211 181.683C319.952 182.386 318.443 182.474 317.11 181.918L299.594 174.639L289.562 185.491C288.259 186.912 286.209 187.38 284.407 186.677C282.606 185.974 281.434 184.232 281.434 182.298V170.055C281.434 169.469 281.654 168.913 282.049 168.488L306.595 141.701C307.444 140.779 307.415 139.358 306.536 138.479C305.658 137.601 304.237 137.542 303.314 138.377L273.526 164.841L260.594 158.368C259.041 157.592 258.045 156.039 258.002 154.311C257.958 152.583 258.866 150.972 260.359 150.108L325.971 112.616C327.538 111.722 329.471 111.81 330.95 112.821Z" fill="#784BF7"/>
<path d="M330.95 112.821C332.429 113.846 333.206 115.618 332.927 117.39L323.554 178.315C323.335 179.736 322.471 180.98 321.211 181.683C319.952 182.386 318.443 182.474 317.11 181.918L299.594 174.639L289.562 185.491C288.259 186.912 286.209 187.38 284.407 186.677C282.606 185.974 281.434 184.232 281.434 182.298V170.055C281.434 169.469 281.654 168.913 282.049 168.488L306.595 141.701C307.444 140.779 307.415 139.358 306.536 138.479C305.658 137.601 304.237 137.542 303.314 138.377L273.526 164.841L260.594 158.368C259.041 157.592 258.045 156.039 258.002 154.311C257.958 152.583 258.866 150.972 260.359 150.108L325.971 112.616C327.538 111.722 329.471 111.81 330.95 112.821Z" stroke="black"/>
<path d="M54 149.5C54 167.453 69.4432 182 88.498 182C93.4975 182 98.241 181 102.526 179.203C104.13 180.563 106.744 182.422 109.844 183.984C113.078 185.609 116.972 187 120.84 187C121.716 187 122.497 186.391 122.834 185.453C123.171 184.516 122.983 183.453 122.376 182.734L122.336 182.687C122.295 182.641 122.241 182.578 122.161 182.469C122.012 182.281 121.783 181.984 121.5 181.578C120.948 180.797 120.207 179.641 119.452 178.203C118.104 175.609 116.824 172.203 116.568 168.375C120.611 163.062 122.996 156.547 122.996 149.5C122.996 131.547 107.553 117 88.498 117C69.4432 117 54 131.547 54 149.5Z" fill="#049CF1"/>
<path d="M88.9982 129C87.5759 129 86.4268 130.201 86.4268 131.688V133.3C80.5608 134.543 76.1413 139.968 76.1413 146.469V148.048C76.1413 151.995 74.7511 155.808 72.244 158.764L71.6493 159.461C70.9744 160.251 70.8136 161.384 71.2235 162.35C71.6333 163.316 72.5574 163.938 73.5699 163.938H104.427C105.439 163.938 106.355 163.316 106.773 162.35C107.191 161.384 107.022 160.251 106.347 159.461L105.752 158.764C103.245 155.808 101.855 152.003 101.855 148.048V146.469C101.855 139.968 97.4356 134.543 91.5696 133.3V131.688C91.5696 130.201 90.4205 129 88.9982 129ZM92.6384 170.429C93.6026 169.422 94.141 168.053 94.141 166.625H88.9982H83.8554C83.8554 168.053 84.3938 169.422 85.3581 170.429C86.3224 171.437 87.6322 172 88.9982 172C90.3643 172 91.6741 171.437 92.6384 170.429Z" fill="white"/>
<path d="M176.625 61C181.796 61 186 64.0831 186 67.8753V98.8141C186 102.606 181.796 105.689 176.625 105.689H162.562V114.284C162.562 114.939 162.064 115.53 161.273 115.82C160.482 116.11 159.53 116.045 158.812 115.659L140.692 105.689H120.375C115.204 105.689 111 102.606 111 98.8141V67.8753C111 64.0831 115.204 61 120.375 61H176.625Z" fill="#A902F8"/>
<path d="M126 82.6333C126 81.1746 126.615 79.7757 127.709 78.7442C128.803 77.7128 130.286 77.1333 131.833 77.1333C133.38 77.1333 134.864 77.7128 135.958 78.7442C137.052 79.7757 137.667 81.1746 137.667 82.6333C137.667 84.092 137.052 85.491 135.958 86.5224C134.864 87.5539 133.38 88.1333 131.833 88.1333C130.286 88.1333 128.803 87.5539 127.709 86.5224C126.615 85.491 126 84.092 126 82.6333ZM142.667 82.6333C142.667 81.1746 143.281 79.7757 144.375 78.7442C145.469 77.7128 146.953 77.1333 148.5 77.1333C150.047 77.1333 151.531 77.7128 152.625 78.7442C153.719 79.7757 154.333 81.1746 154.333 82.6333C154.333 84.092 153.719 85.491 152.625 86.5224C151.531 87.5539 150.047 88.1333 148.5 88.1333C146.953 88.1333 145.469 87.5539 144.375 86.5224C143.281 85.491 142.667 84.092 142.667 82.6333ZM165.167 77.1333C166.714 77.1333 168.197 77.7128 169.291 78.7442C170.385 79.7757 171 81.1746 171 82.6333C171 84.092 170.385 85.491 169.291 86.5224C168.197 87.5539 166.714 88.1333 165.167 88.1333C163.62 88.1333 162.136 87.5539 161.042 86.5224C159.948 85.491 159.333 84.092 159.333 82.6333C159.333 81.1746 159.948 79.7757 161.042 78.7442C162.136 77.7128 163.62 77.1333 165.167 77.1333Z" fill="white"/>
<path d="M238.562 159.016V206.562C238.562 209.671 237.328 212.651 235.13 214.849C232.932 217.047 229.952 218.281 226.844 218.281H172.156C169.048 218.281 166.068 217.047 163.87 214.849C161.672 212.651 160.438 209.671 160.438 206.562V128.438C160.438 125.329 161.672 122.349 163.87 120.151C166.068 117.953 169.048 116.719 172.156 116.719H196.265C198.336 116.719 200.323 117.542 201.788 119.006L236.275 153.494C237.739 154.958 238.562 156.945 238.562 159.016Z" fill="white" stroke="#2D2D2D" stroke-width="5" stroke-linejoin="round"/>
<path d="M199.5 118.672V147.969C199.5 150.041 200.323 152.028 201.788 153.493C203.253 154.958 205.24 155.781 207.312 155.781H236.609M179.969 175.312H219.031M179.969 194.844H219.031" stroke="#2D2D2D" stroke-width="5" stroke-linecap="round" stroke-linejoin="round"/>
<path d="M272 71C274.761 71 277 68.7614 277 66C277 63.2386 274.761 61 272 61C269.239 61 267 63.2386 267 66C267 68.7614 269.239 71 272 71Z" stroke="#DFF553" stroke-width="5" stroke-linecap="round" stroke-linejoin="round"/>
<path d="M133 305C135.761 305 138 302.761 138 300C138 297.239 135.761 295 133 295C130.239 295 128 297.239 128 300C128 302.761 130.239 305 133 305Z" stroke="#53FABE" stroke-width="5" stroke-linecap="round" stroke-linejoin="round"/>
<path d="M300 289C302.761 289 305 286.761 305 284C305 281.239 302.761 279 300 279C297.239 279 295 281.239 295 284C295 286.761 297.239 289 300 289Z" stroke="#FF5757" stroke-width="5" stroke-linecap="round" stroke-linejoin="round"/>
<path d="M344 205C346.761 205 349 202.761 349 200C349 197.239 346.761 195 344 195C341.239 195 339 197.239 339 200C339 202.761 341.239 205 344 205Z" stroke="#F46DF7" stroke-width="5" stroke-linecap="round" stroke-linejoin="round"/>
<path d="M282 102V112M287 107H277" stroke="#5B6AF8" stroke-width="8" stroke-linecap="round" stroke-linejoin="round"/>
<path d="M78 204V214M83 209H73" stroke="#F97C7C" stroke-width="5" stroke-linecap="round" stroke-linejoin="round"/>
<path d="M166 341V351M171 346H161" stroke="#03C3FF" stroke-width="3" stroke-linecap="round" stroke-linejoin="round"/>
<path d="M272 324V334M277 329H267" stroke="#5653FF" stroke-width="3" stroke-linecap="round" stroke-linejoin="round"/>
<path d="M195.536 313.536L202.607 320.607M202.607 313.536L195.536 320.607" stroke="#61F05E" stroke-width="3" stroke-linecap="round" stroke-linejoin="round"/>
<path d="M308.536 239.536L315.607 246.607M315.607 239.536L308.536 246.607" stroke="#F7AB52" stroke-width="3" stroke-linecap="round" stroke-linejoin="round"/>
<path d="M214.536 72.5355L221.607 79.6066M221.607 72.5355L214.536 79.6066" stroke="#58F785" stroke-width="3" stroke-linecap="round" stroke-linejoin="round"/>
<path d="M82.5887 246.84C80.6478 254.274 81.5024 262.162 84.9906 269.008C88.4788 275.854 94.358 281.182 101.513 283.981M60.188 239.561C56.3316 252.941 57.703 267.287 64.0246 279.694C70.3463 292.1 81.1459 301.642 94.2373 306.387" stroke="#FDA9FF" stroke-width="8" stroke-linecap="round" stroke-linejoin="round"/>
</g>
<defs>
<clipPath id="clip0_0_1">
<rect width="400" height="400" fill="white"/>
</clipPath>
</defs>
</svg>
