<svg width="400" height="400" viewBox="0 0 400 400" fill="none" xmlns="http://www.w3.org/2000/svg">
<path d="M302.437 206.456H309.112V199.175H308.505C305.152 199.175 302.437 201.89 302.437 205.243V206.456ZM302.437 207.67V212.524C302.437 215.877 305.152 218.592 308.505 218.592H310.932C314.284 218.592 317 215.877 317 212.524V207.67H309.718H302.437ZM317 206.456V205.243C317 201.89 314.284 199.175 310.932 199.175H310.325V206.456H317Z" fill="white"/>
<path d="M245.269 196.553C242.984 196.553 241.126 198.411 241.126 200.696V217.265C241.126 219.55 242.984 221.408 245.269 221.408H274.265C276.55 221.408 278.408 219.55 278.408 217.265V200.696C278.408 198.411 276.55 196.553 274.265 196.553H245.269ZM246.304 200.696H248.375C248.945 200.696 249.411 201.162 249.411 201.731V203.802C249.411 204.372 248.945 204.838 248.375 204.838H246.304C245.735 204.838 245.269 204.372 245.269 203.802V201.731C245.269 201.162 245.735 200.696 246.304 200.696ZM245.269 207.945C245.269 207.375 245.735 206.909 246.304 206.909H248.375C248.945 206.909 249.411 207.375 249.411 207.945V210.016C249.411 210.586 248.945 211.052 248.375 211.052H246.304C245.735 211.052 245.269 210.586 245.269 210.016V207.945ZM246.304 213.123H248.375C248.945 213.123 249.411 213.589 249.411 214.158V216.23C249.411 216.799 248.945 217.265 248.375 217.265H246.304C245.735 217.265 245.269 216.799 245.269 216.23V214.158C245.269 213.589 245.735 213.123 246.304 213.123ZM251.482 201.731C251.482 201.162 251.948 200.696 252.518 200.696H254.589C255.159 200.696 255.625 201.162 255.625 201.731V203.802C255.625 204.372 255.159 204.838 254.589 204.838H252.518C251.948 204.838 251.482 204.372 251.482 203.802V201.731ZM252.518 206.909H254.589C255.159 206.909 255.625 207.375 255.625 207.945V210.016C255.625 210.586 255.159 211.052 254.589 211.052H252.518C251.948 211.052 251.482 210.586 251.482 210.016V207.945C251.482 207.375 251.948 206.909 252.518 206.909ZM251.482 214.158C251.482 213.589 251.948 213.123 252.518 213.123H267.016C267.586 213.123 268.052 213.589 268.052 214.158V216.23C268.052 216.799 267.586 217.265 267.016 217.265H252.518C251.948 217.265 251.482 216.799 251.482 216.23V214.158ZM258.731 200.696H260.803C261.372 200.696 261.838 201.162 261.838 201.731V203.802C261.838 204.372 261.372 204.838 260.803 204.838H258.731C258.162 204.838 257.696 204.372 257.696 203.802V201.731C257.696 201.162 258.162 200.696 258.731 200.696ZM257.696 207.945C257.696 207.375 258.162 206.909 258.731 206.909H260.803C261.372 206.909 261.838 207.375 261.838 207.945V210.016C261.838 210.586 261.372 211.052 260.803 211.052H258.731C258.162 211.052 257.696 210.586 257.696 210.016V207.945ZM264.945 200.696H267.016C267.586 200.696 268.052 201.162 268.052 201.731V203.802C268.052 204.372 267.586 204.838 267.016 204.838H264.945C264.375 204.838 263.909 204.372 263.909 203.802V201.731C263.909 201.162 264.375 200.696 264.945 200.696ZM263.909 207.945C263.909 207.375 264.375 206.909 264.945 206.909H267.016C267.586 206.909 268.052 207.375 268.052 207.945V210.016C268.052 210.586 267.586 211.052 267.016 211.052H264.945C264.375 211.052 263.909 210.586 263.909 210.016V207.945ZM271.159 200.696H273.23C273.799 200.696 274.265 201.162 274.265 201.731V203.802C274.265 204.372 273.799 204.838 273.23 204.838H271.159C270.589 204.838 270.123 204.372 270.123 203.802V201.731C270.123 201.162 270.589 200.696 271.159 200.696ZM270.123 207.945C270.123 207.375 270.589 206.909 271.159 206.909H273.23C273.799 206.909 274.265 207.375 274.265 207.945V210.016C274.265 210.586 273.799 211.052 273.23 211.052H271.159C270.589 211.052 270.123 210.586 270.123 210.016V207.945ZM271.159 213.123H273.23C273.799 213.123 274.265 213.589 274.265 214.158V216.23C274.265 216.799 273.799 217.265 273.23 217.265H271.159C270.589 217.265 270.123 216.799 270.123 216.23V214.158C270.123 213.589 270.589 213.123 271.159 213.123Z" fill="white"/>
<path d="M282.922 124.32V156.942H236.32V124.32H282.922ZM236.32 115C231.18 115 227 119.18 227 124.32V156.942C227 162.083 231.18 166.262 236.32 166.262H253.403L251.845 170.922H240.981C238.403 170.922 236.32 173.005 236.32 175.583C236.32 178.16 238.403 180.243 240.981 180.243H278.262C280.84 180.243 282.922 178.16 282.922 175.583C282.922 173.005 280.84 170.922 278.262 170.922H267.383L265.825 166.262H282.922C288.063 166.262 292.243 162.083 292.243 156.942V124.32C292.243 119.18 288.063 115 282.922 115H236.32ZM303.893 115C300.034 115 296.903 118.131 296.903 121.99V173.252C296.903 177.112 300.034 180.243 303.893 180.243H313.214C317.073 180.243 320.204 177.112 320.204 173.252V121.99C320.204 118.131 317.073 115 313.214 115H303.893ZM306.223 124.32H310.883C312.165 124.32 313.214 125.369 313.214 126.65C313.214 127.932 312.165 128.981 310.883 128.981H306.223C304.942 128.981 303.893 127.932 303.893 126.65C303.893 125.369 304.942 124.32 306.223 124.32ZM303.893 135.971C303.893 134.689 304.942 133.641 306.223 133.641H310.883C312.165 133.641 313.214 134.689 313.214 135.971C313.214 137.252 312.165 138.301 310.883 138.301H306.223C304.942 138.301 303.893 137.252 303.893 135.971ZM308.553 159.272C309.789 159.272 310.975 159.763 311.849 160.637C312.723 161.511 313.214 162.696 313.214 163.932C313.214 165.168 312.723 166.353 311.849 167.227C310.975 168.101 309.789 168.592 308.553 168.592C307.317 168.592 306.132 168.101 305.258 167.227C304.384 166.353 303.893 165.168 303.893 163.932C303.893 162.696 304.384 161.511 305.258 160.637C306.132 159.763 307.317 159.272 308.553 159.272Z" fill="white"/>
<path d="M135.563 223.325C133.685 221.956 131.252 221.607 129.068 222.393C125.209 223.791 120.884 224.592 116.282 224.592C98.1214 224.592 85.9903 212.869 85.9903 201.291C85.9903 189.714 98.1214 177.99 116.282 177.99C134.442 177.99 146.573 189.714 146.573 201.291C146.573 205.951 144.767 210.437 141.374 214.282C140.121 215.694 139.51 217.558 139.655 219.451C139.859 222.087 140.485 224.505 141.301 226.646C138.825 225.495 136.772 224.214 135.563 223.34V223.325ZM150.476 229.238C150.214 228.845 149.966 228.451 149.733 228.058C148.277 225.641 146.893 222.466 146.617 218.898C150.985 213.932 153.563 207.859 153.563 201.291C153.563 184.558 136.874 171 116.282 171C95.6894 171 79 184.558 79 201.291C79 218.024 95.6894 231.583 116.282 231.583C121.685 231.583 126.811 230.65 131.442 228.976C133.175 230.243 136 231.976 139.35 233.432C141.549 234.393 144.053 235.267 146.646 235.777C146.762 235.806 146.879 235.82 146.995 235.85C147.636 235.966 148.262 236.068 148.918 236.126C148.947 236.126 148.99 236.141 149.019 236.141C149.762 236.214 150.505 236.257 151.248 236.257C152.194 236.257 153.039 235.689 153.403 234.816C153.767 233.942 153.563 232.951 152.908 232.282C152.311 231.67 151.772 231.015 151.262 230.316C151.015 229.981 150.782 229.646 150.563 229.311C150.549 229.282 150.534 229.267 150.519 229.238H150.476Z" fill="white"/>
<g clip-path="url(#clip0_3_77)">
<path d="M199.1 221.057C185.289 220.207 173.66 228.896 173.923 243.052L173.912 244.333L167.912 254.929C167.589 255.5 167.56 256.191 167.835 256.789C168.108 257.386 168.652 257.815 169.295 257.941L173.004 258.964L174.168 270.201C174.2 271.283 174.681 272.302 175.497 273.015C176.314 273.724 177.393 274.062 178.468 273.942L181.43 274.178C182.007 274.113 182.587 274.297 183.019 274.685C183.453 275.074 183.7 275.629 183.7 276.21V285H208.752C208.752 285 208.752 280.758 208.752 279.05C208.752 277.342 209.341 273.436 210.461 271.649C214.522 265.156 221.134 261.701 222.249 248.382C223.364 235.064 215.416 222.063 199.1 221.057ZM216.369 245.823C215.14 245.823 213.857 245.823 213.857 245.823C213.246 245.822 212.749 245.326 212.748 244.715V243.167C212.748 242.6 212.287 242.139 211.72 242.139C211.153 242.139 210.692 242.6 210.692 243.167V244.715C210.693 246.463 212.109 247.879 213.857 247.88C213.86 247.88 214.905 247.88 216.012 247.88C214.831 252.754 211.578 254.59 208.316 252.748C206.19 251.546 206.371 249.751 205.379 248.262V242.824C205.379 242.257 204.918 241.796 204.35 241.796C203.783 241.796 203.323 242.258 203.323 242.824V246.65C201.847 246.017 199.496 245.611 195.571 245.611C194.509 245.611 193.528 245.603 192.613 245.586V241.454C192.613 240.886 192.152 240.426 191.584 240.426C191.016 240.426 190.556 240.886 190.556 241.454V245.529C182.24 245.205 181.017 243.869 180.363 240.508C180.336 240.307 180.317 240.109 180.3 239.912H184.666C186.736 239.912 188.415 238.234 188.415 236.165V234.546C188.415 233.978 187.954 233.518 187.386 233.518C186.818 233.518 186.358 233.978 186.358 234.546V236.165C186.356 237.099 185.6 237.855 184.666 237.857H180.295C180.546 234.996 181.898 232.657 183.998 230.519C185.603 228.882 187.583 227.613 189.829 226.752C189.829 228.081 189.829 229.378 189.829 229.899C189.835 230.781 190.144 231.68 190.738 232.444C191.037 232.824 191.416 233.167 191.879 233.416C192.339 233.667 192.888 233.818 193.472 233.817C195.124 233.817 196.777 233.817 196.777 233.817C197.345 233.817 197.805 233.356 197.805 232.789C197.805 232.222 197.345 231.761 196.777 231.761C196.777 231.761 195.124 231.761 193.472 231.761C193.232 231.76 193.039 231.704 192.856 231.606C192.584 231.461 192.331 231.194 192.152 230.866C191.974 230.542 191.882 230.163 191.885 229.899C191.885 229.293 191.885 227.636 191.885 226.1C193.59 225.659 195.411 225.426 197.314 225.426C197.797 225.426 198.287 225.441 198.777 225.472C203.09 225.737 206.824 227.089 209.749 229.413V238.454C209.749 239.023 210.21 239.484 210.778 239.484C211.345 239.484 211.805 239.023 211.805 238.454V231.353C211.86 231.413 211.916 231.472 211.971 231.534C214.916 234.943 216.504 239.647 216.463 244.637C216.443 245.049 216.41 245.441 216.369 245.823Z" fill="white"/>
<path d="M203.323 231.771C202.755 231.771 202.294 232.233 202.294 232.8V236.123C202.293 236.841 201.711 237.427 200.991 237.428H197.324C196.757 237.428 196.297 237.887 196.297 238.454C196.297 239.023 196.757 239.484 197.324 239.484H200.991C202.848 239.481 204.35 237.979 204.35 236.123V232.8C204.35 232.233 203.89 231.771 203.323 231.771Z" fill="white"/>
</g>
<ellipse cx="195" cy="187.5" rx="13" ry="13.5" fill="#FFE600"/>
<path d="M200.613 201C201.295 201 201.777 201.669 201.561 202.316L199.228 209.316C199.092 209.725 198.71 210 198.279 210H191.721C191.29 210 190.908 209.725 190.772 209.316L188.439 202.316C188.223 201.669 188.705 201 189.387 201H200.613Z" fill="#828282"/>
<path d="M195 173.667C187.636 173.667 181.667 179.636 181.667 187C181.667 190.63 183.117 193.921 185.471 196.326C186.387 197.262 187.141 198.377 187.398 199.662L188.809 206.713C189.308 209.206 191.497 211 194.039 211H195.961C198.504 211 200.692 209.206 201.191 206.713L202.602 199.662C202.859 198.377 203.613 197.262 204.529 196.326C206.883 193.921 208.333 190.63 208.333 187C208.333 179.636 202.364 173.667 195 173.667Z" stroke="white" stroke-width="3"/>
<path d="M195 165.667V163" stroke="white" stroke-width="3" stroke-linecap="round" stroke-linejoin="round"/>
<path d="M211 171L213.667 168.333" stroke="white" stroke-width="3" stroke-linecap="round" stroke-linejoin="round"/>
<path d="M216.333 187H219" stroke="white" stroke-width="3" stroke-linecap="round" stroke-linejoin="round"/>
<path d="M173.667 187H171" stroke="white" stroke-width="3" stroke-linecap="round" stroke-linejoin="round"/>
<path d="M176.333 168.333L179 171" stroke="white" stroke-width="3" stroke-linecap="round" stroke-linejoin="round"/>
<path d="M189.667 200.333H200.333" stroke="white" stroke-width="3" stroke-linecap="round" stroke-linejoin="round"/>
<path opacity="0.1" d="M181.667 187C181.667 179.636 187.636 173.667 195 173.667C202.364 173.667 208.333 179.636 208.333 187C208.333 190.63 206.883 193.921 204.529 196.326C203.613 197.262 202.859 198.377 202.602 199.662L202.468 200.333H187.532L187.398 199.662C187.141 198.377 186.387 197.262 185.471 196.326C183.117 193.921 181.667 190.63 181.667 187Z" fill="white"/>
<g clip-path="url(#clip1_3_77)">
<path d="M118 189C118 187.894 117.106 187 116 187C114.894 187 114 187.894 114 189V205C114 206.106 114.894 207 116 207C117.106 207 118 206.106 118 205V189ZM116 215C116.663 215 117.299 214.737 117.768 214.268C118.237 213.799 118.5 213.163 118.5 212.5C118.5 211.837 118.237 211.201 117.768 210.732C117.299 210.263 116.663 210 116 210C115.337 210 114.701 210.263 114.232 210.732C113.763 211.201 113.5 211.837 113.5 212.5C113.5 213.163 113.763 213.799 114.232 214.268C114.701 214.737 115.337 215 116 215Z" fill="white"/>
</g>
<g clip-path="url(#clip2_3_77)">
<path d="M247.718 242.211L233.163 244.535C233.076 244.549 232.993 244.574 232.914 244.609C232.715 244.698 232.548 244.85 232.441 245.046C232.293 245.319 232.28 245.646 232.407 245.929L240.846 264.883L256.674 262.327L247.718 242.211ZM251.349 258.443C251.381 258.67 251.256 258.882 251.058 258.97C251.016 258.989 250.971 259.002 250.925 259.009L243.476 260.063C243.203 260.102 242.95 259.912 242.911 259.639C242.872 259.365 243.065 259.114 243.335 259.073L250.784 258.019C251.057 257.98 251.31 258.17 251.349 258.443ZM249.926 255.246C249.958 255.473 249.833 255.685 249.635 255.773C249.593 255.792 249.548 255.805 249.501 255.812L242.052 256.865C241.779 256.904 241.526 256.714 241.487 256.441C241.448 256.167 241.641 255.916 241.911 255.875L249.36 254.821C249.634 254.783 249.887 254.973 249.926 255.246ZM248.502 252.049C248.534 252.275 248.409 252.487 248.211 252.576C248.169 252.594 248.124 252.607 248.078 252.614L240.629 253.668C240.355 253.707 240.102 253.516 240.063 253.243C240.024 252.97 240.217 252.718 240.488 252.678L247.937 251.624C248.21 251.585 248.463 251.776 248.502 252.049ZM247.079 248.851C247.111 249.078 246.986 249.29 246.787 249.378C246.745 249.397 246.701 249.41 246.654 249.417L239.205 250.471C238.932 250.509 238.678 250.319 238.64 250.046C238.601 249.772 238.794 249.521 239.064 249.48L246.513 248.427C246.787 248.388 247.04 248.578 247.079 248.851Z" fill="white"/>
<path d="M260.961 232.348C260.744 232.296 260.519 232.319 260.319 232.408C260.241 232.443 260.166 232.488 260.098 232.542L248.632 241.805L257.588 261.92L270.079 251.867L261.64 232.914C261.514 232.63 261.263 232.421 260.961 232.348ZM256.516 251.615L262.283 246.784C262.495 246.611 262.81 246.635 262.988 246.847C263.164 247.059 263.137 247.374 262.925 247.552L257.157 252.382C257.12 252.412 257.081 252.437 257.039 252.455C256.841 252.544 256.6 252.495 256.453 252.319C256.276 252.108 256.304 251.792 256.516 251.615ZM264.495 250.705L258.727 255.535C258.69 255.565 258.651 255.59 258.609 255.609C258.41 255.697 258.169 255.648 258.022 255.472C257.845 255.261 257.873 254.946 258.085 254.768L263.853 249.938C264.065 249.764 264.38 249.788 264.557 250.001C264.734 250.213 264.706 250.528 264.495 250.705ZM261.647 244.31L255.88 249.14C255.843 249.17 255.804 249.195 255.762 249.214C255.563 249.302 255.322 249.253 255.175 249.078C254.999 248.866 255.026 248.551 255.238 248.373L261.006 243.543C261.217 243.369 261.532 243.393 261.71 243.606C261.887 243.817 261.859 244.133 261.647 244.31ZM260.224 241.113L254.456 245.943C254.42 245.973 254.38 245.998 254.338 246.016C254.14 246.105 253.899 246.056 253.752 245.88C253.575 245.669 253.603 245.353 253.815 245.176L259.582 240.345C259.794 240.172 260.109 240.196 260.286 240.408C260.463 240.62 260.435 240.935 260.224 241.113Z" fill="white"/>
<path d="M257.095 263.272L241.266 265.828L241.659 266.71L257.488 264.154L257.095 263.272Z" fill="white"/>
<path d="M258.401 263.747L270.893 253.695L270.5 252.813L258.009 262.865L258.401 263.747Z" fill="white"/>
<path d="M259.789 264.406C260.126 265.163 259.786 266.049 259.029 266.386C258.272 266.723 257.386 266.383 257.049 265.626C256.995 265.505 256.964 265.379 256.943 265.254L242.08 267.655L242.575 268.767C242.759 269.181 243.199 269.419 243.646 269.348L256.867 267.238C257.579 267.936 258.667 268.171 259.632 267.741C260.598 267.311 261.151 266.345 261.109 265.349L271.524 256.936C271.876 256.652 271.993 256.166 271.809 255.752L271.313 254.639L259.584 264.079C259.663 264.178 259.736 264.285 259.789 264.406Z" fill="white"/>
</g>
<path fill-rule="evenodd" clip-rule="evenodd" d="M135.333 246.333C134.98 246.333 134.641 246.474 134.391 246.724L126.391 254.724C126.14 254.974 126 255.313 126 255.667V271.667C126 273.876 127.791 275.667 130 275.667H131.333C132.07 275.667 132.667 275.07 132.667 274.333C132.667 273.597 132.07 273 131.333 273H130C129.264 273 128.667 272.403 128.667 271.667V257H135.333C136.07 257 136.667 256.403 136.667 255.667V249H146C146.736 249 147.333 249.597 147.333 250.333V254.333C147.333 255.07 147.93 255.667 148.667 255.667C149.403 255.667 150 255.07 150 254.333V250.333C150 248.124 148.209 246.333 146 246.333H135.333ZM134 254.333H130.552L134 250.886V254.333ZM151.495 259.276C149.933 257.714 147.4 257.714 145.838 259.276L143.599 261.516L137.057 268.057C136.886 268.228 136.765 268.442 136.707 268.677L135.373 274.01C135.26 274.464 135.393 274.945 135.724 275.276C136.055 275.607 136.536 275.74 136.99 275.627L142.323 274.293C142.558 274.235 142.772 274.114 142.943 273.943L149.407 267.478L151.724 265.162C153.286 263.6 153.286 261.067 151.724 259.505L151.495 259.276ZM146.409 262.476L147.724 261.162C148.245 260.641 149.089 260.641 149.609 261.162L149.838 261.39C150.359 261.911 150.359 262.755 149.838 263.276L148.483 264.631L146.409 262.476ZM144.523 264.362L146.597 266.517L141.318 271.796L138.499 272.501L139.204 269.682L144.523 264.362Z" fill="white"/>
<defs>
<clipPath id="clip0_3_77">
<rect width="64" height="64" fill="white" transform="translate(163 221)"/>
</clipPath>
<clipPath id="clip1_3_77">
<rect width="4" height="32" fill="white" transform="translate(114 185)"/>
</clipPath>
<clipPath id="clip2_3_77">
<rect width="32" height="32" fill="white" transform="translate(232 245.016) rotate(-24)"/>
</clipPath>
</defs>
</svg>
