<svg width="640" height="480" viewBox="0 0 640 480" fill="none" xmlns="http://www.w3.org/2000/svg">
<path d="M342.571 357.143V462.857H236.857V328.571H314V357.143H342.571Z" fill="white"/>
<path d="M342.571 357.143H314V328.571L342.571 357.143Z" fill="#AFB6BB"/>
<path d="M345.422 357.143C345.421 356.399 345.138 355.669 344.592 355.123L316.021 326.551C315.474 326.005 314.743 325.721 314 325.721V325.714H236.857C235.279 325.714 234 326.993 234 328.571V462.857C234 464.435 235.279 465.714 236.857 465.714H342.571C344.149 465.714 345.429 464.435 345.429 462.857V357.143H345.422ZM316.857 335.469L335.673 354.286H316.857V335.469ZM239.714 460V331.429H311.143V357.143C311.143 358.721 312.422 360 314 360H339.714V460H239.714Z" fill="#231F20"/>
<path d="M255.429 377.388L250.306 372.265L246.265 376.306L253.408 383.449C253.966 384.007 254.697 384.286 255.429 384.286C256.16 384.286 256.891 384.007 257.449 383.449L271.735 369.163L267.694 365.122L255.429 377.388Z" fill="#231F20"/>
<path d="M291.143 368.571H276.857V374.286H291.143V368.571Z" fill="#231F20"/>
<path d="M308.286 377.143H276.857V382.857H308.286V377.143Z" fill="#231F20"/>
<path d="M332.571 368.571H295.429V374.286H332.571V368.571Z" fill="#231F20"/>
<path d="M255.429 400.245L250.306 395.123L246.265 399.163L253.408 406.306C253.966 406.864 254.697 407.143 255.429 407.143C256.16 407.143 256.891 406.864 257.449 406.306L271.735 392.02L267.694 387.979L255.429 400.245Z" fill="#231F20"/>
<path d="M291.143 391.429H276.857V397.143H291.143V391.429Z" fill="#231F20"/>
<path d="M308.286 400H276.857V405.714H308.286V400Z" fill="#231F20"/>
<path d="M332.571 391.429H295.429V397.143H332.571V391.429Z" fill="#231F20"/>
<path d="M255.429 423.102L250.306 417.98L246.265 422.021L253.408 429.163C253.966 429.721 254.697 430 255.429 430C256.16 430 256.891 429.721 257.449 429.163L271.735 414.877L267.694 410.837L255.429 423.102Z" fill="#231F20"/>
<path d="M291.143 414.286H276.857V420H291.143V414.286Z" fill="#231F20"/>
<path d="M308.286 422.857H276.857V428.571H308.286V422.857Z" fill="#231F20"/>
<path d="M332.571 414.286H295.429V420H332.571V414.286Z" fill="#231F20"/>
<path d="M255.429 445.959L250.306 440.837L246.265 444.878L253.408 452.021C253.966 452.578 254.697 452.857 255.429 452.857C256.16 452.857 256.891 452.578 257.449 452.02L271.735 437.735L267.694 433.694L255.429 445.959Z" fill="#231F20"/>
<path d="M291.143 437.143H276.857V442.857H291.143V437.143Z" fill="#231F20"/>
<path d="M308.286 445.714H276.857V451.429H308.286V445.714Z" fill="#231F20"/>
<path d="M332.571 437.143H295.429V442.857H332.571V437.143Z" fill="#231F20"/>
<path d="M261.143 338.571H246.857V344.286H261.143V338.571Z" fill="#231F20"/>
<path d="M276.857 347.143H246.857V352.857H276.857V347.143Z" fill="#231F20"/>
<path d="M570.143 189.571L551.571 208.143V189.571H570.143Z" fill="#AFB6BB"/>
<path d="M570.143 119.571V189.571H551.571V208.143H435.857V119.571H570.143Z" fill="white"/>
<path d="M573 119.571C573 117.994 571.721 116.714 570.143 116.714H435.857C434.279 116.714 433 117.994 433 119.571V208.143C433 209.721 434.279 211 435.857 211H551.571C552.315 211 553.045 210.71 553.592 210.163L572.163 191.592C572.709 191.045 572.993 190.315 572.993 189.571H573V119.571ZM551.571 186.714C549.993 186.714 548.714 187.994 548.714 189.571V205.286H438.714V122.429H567.286V186.714H551.571ZM554.429 201.245V192.429H563.245L554.429 201.245Z" fill="#231F20"/>
<path d="M484.429 132.429H450.143V149.571H484.429V132.429Z" fill="#AFB6BB"/>
<path d="M533 133.857H504.429V148.143H533V133.857Z" fill="#AFB6BB"/>
<path d="M533 156.714H504.429V171H533V156.714Z" fill="#AFB6BB"/>
<path d="M533 179.571H504.429V193.857H533V179.571Z" fill="#AFB6BB"/>
<path d="M504.429 151H533C534.578 151 535.857 149.721 535.857 148.143V133.857C535.857 132.279 534.578 131 533 131H504.429C502.851 131 501.571 132.279 501.571 133.857V138.143H494.429C492.851 138.143 491.571 139.422 491.571 141V162.429H468.714V152.429H484.429C486.007 152.429 487.286 151.149 487.286 149.571V132.429C487.286 130.851 486.007 129.571 484.429 129.571H450.143C448.565 129.571 447.286 130.851 447.286 132.429V149.571C447.286 151.149 448.565 152.429 450.143 152.429H463V165.286C463 166.863 464.279 168.143 465.857 168.143H491.571V188.143C491.571 189.721 492.851 191 494.429 191H501.571V193.857C501.571 195.435 502.851 196.714 504.429 196.714H533C534.578 196.714 535.857 195.435 535.857 193.857V179.571C535.857 177.994 534.578 176.714 533 176.714H504.429C502.851 176.714 501.571 177.994 501.571 179.571V185.286H497.286V168.143H501.571V171C501.571 172.578 502.851 173.857 504.429 173.857H533C534.578 173.857 535.857 172.578 535.857 171V156.714C535.857 155.137 534.578 153.857 533 153.857H504.429C502.851 153.857 501.571 155.137 501.571 156.714V162.429H497.286V143.857H501.571V148.143C501.571 149.721 502.851 151 504.429 151ZM507.286 136.714H530.143V145.286H507.286V136.714ZM453 135.286H481.571V146.714H453V135.286ZM507.286 182.429H530.143V191H507.286V182.429ZM507.286 159.571H530.143V168.143H507.286V159.571Z" fill="#231F20"/>
<path d="M468.714 175.286H447.286V181H468.714V175.286Z" fill="#231F20"/>
<path d="M468.714 183.857H447.286V189.571H468.714V183.857Z" fill="#231F20"/>
<path d="M484.429 192.429H447.286V198.143H484.429V192.429Z" fill="#231F20"/>
<path d="M477.286 175.286H471.571V181H477.286V175.286Z" fill="#231F20"/>
<path d="M548.714 131H541.571V136.714H548.714V131Z" fill="#231F20"/>
<path d="M560.143 131H553V136.714H560.143V131Z" fill="#231F20"/>
<path d="M548.714 139.571H541.571V145.286H548.714V139.571Z" fill="#231F20"/>
<path d="M560.143 139.571H553V145.286H560.143V139.571Z" fill="#231F20"/>
<path d="M548.714 148.143H541.571V153.857H548.714V148.143Z" fill="#231F20"/>
<path d="M560.143 148.143H553V153.857H560.143V148.143Z" fill="#231F20"/>
<path d="M548.714 156.714H541.571V162.429H548.714V156.714Z" fill="#231F20"/>
<path d="M560.143 156.714H553V162.429H560.143V156.714Z" fill="#231F20"/>
<path d="M570.143 223.857L553 229.571V218.143L570.143 223.857Z" fill="#E7ECED"/>
<path d="M453 218.143H435.857V229.571H453V218.143Z" fill="#AFB6BB"/>
<path d="M553 218.143H453V229.571H553V218.143Z" fill="#FFD248"/>
<path d="M571.046 221.147L553.903 215.432C553.608 215.334 553.303 215.29 553 215.29V215.286H435.857C434.279 215.286 433 216.565 433 218.143V229.571C433 231.149 434.279 232.429 435.857 232.429H553H553C553.303 232.429 553.609 232.38 553.903 232.282L571.046 226.568C572.213 226.179 573 225.087 573 223.857C573 222.627 572.213 221.535 571.046 221.147ZM450.143 226.714H438.714V221H450.143V226.714ZM550.143 221V226.714H455.857V221H550.143ZM555.857 225.607V222.107L561.108 223.857L555.857 225.607Z" fill="#231F20"/>
<g clip-path="url(#clip0_2_13)">
<path d="M253.643 253.143C247.143 246.536 238.107 242.429 228.143 242.429H217.429V234.25L223.071 231.857C228.321 229.607 231.714 224.429 231.714 218.714V216L239.571 214.429C241.214 214.107 242.429 212.643 242.429 210.929V205.75C243.464 206.357 244.714 206.714 246 206.714C249.929 206.714 253.143 203.5 253.143 199.571C253.143 195.643 249.929 192.429 246 192.429C244.5 192.429 243.107 192.893 241.929 193.714C241.393 190.286 240.321 187.036 238.857 184.036V96.0001H335.286L353.143 110.286V274.571H314.893L321 253.143H253.643Z" fill="#A3CEF1"/>
<path d="M299.571 138.857H292.429V160.286H299.571V138.857Z" fill="#274C77"/>
<path d="M321 167.429H306.714V174.571H321V167.429Z" fill="#274C77"/>
<path d="M285.286 167.429H271V174.571H285.286V167.429Z" fill="#274C77"/>
<path d="M311.321 202.107L296 186.786L280.679 202.107L275.643 197.071L293.5 179.214C294.893 177.821 297.143 177.821 298.536 179.214L316.393 197.071L311.357 202.107H311.321Z" fill="#274C77"/>
<path d="M223.071 231.857L212.357 236.464C208.75 238 204.679 238 201.107 236.464L190.393 231.857C185.143 229.607 181.75 224.429 181.75 218.714V199.571C181.75 187.75 191.357 178.143 203.179 178.143H210.321C222.143 178.143 231.75 187.75 231.75 199.571V218.714C231.75 224.429 228.357 229.607 223.107 231.857H223.071Z" fill="#DDA15E"/>
<path d="M253.643 253.143C247.143 246.536 238.107 242.429 228.143 242.429H217.429C217.429 248.357 212.643 253.143 206.714 253.143C200.786 253.143 196 248.357 196 242.429H185.286C165.571 242.429 149.571 258.429 149.571 278.143V303.143H228.143L242.429 253.143H253.643Z" fill="#274C77"/>
<path d="M188.857 288.857H196C199.929 288.857 203.143 292.071 203.143 296V303.143H188.857V288.857Z" fill="#DDA15E"/>
<path d="M171 205.75C169.964 206.357 168.714 206.714 167.429 206.714C163.5 206.714 160.286 203.5 160.286 199.571C160.286 195.643 163.5 192.429 167.429 192.429C168.929 192.429 170.321 192.893 171.5 193.714" fill="#274C77"/>
<path d="M242.429 205.75C243.464 206.357 244.714 206.714 246 206.714C249.929 206.714 253.143 203.5 253.143 199.571C253.143 195.643 249.929 192.429 246 192.429C244.5 192.429 243.107 192.893 241.929 193.714" fill="#274C77"/>
<path d="M196 234.25L201.071 236.429C204.679 238 208.75 238 212.357 236.429L217.429 234.25V242.429C217.429 248.357 212.643 253.143 206.714 253.143C200.786 253.143 196 248.357 196 242.429V234.25Z" fill="#BC6C25"/>
<path d="M228.143 303.143L242.429 253.143H321L306.714 303.143" fill="#8B8C89"/>
<path d="M229.536 190.214C227.5 189.393 225.143 188.857 222.179 188.857C206.714 188.857 206.714 203.143 191.214 203.143C187.179 203.143 184.179 202.179 181.714 200.75V199.571C181.714 187.75 191.321 178.143 203.143 178.143H210.286C218.75 178.143 226.071 183.071 229.536 190.214Z" fill="#274C77"/>
<path d="M231.714 216V199.571C231.714 187.75 222.107 178.143 210.286 178.143H203.143C191.321 178.143 181.714 187.75 181.714 199.571V213.857H174.571C172.607 213.857 171 212.25 171 210.286V199.571C171 179.857 187 163.857 206.714 163.857C216.571 163.857 225.5 167.857 231.964 174.321C238.429 180.786 242.429 189.714 242.429 199.571V210.929C242.429 212.643 241.214 214.107 239.571 214.429L231.714 216Z" fill="#E7ECEF"/>
<path d="M274.571 274.571C276.536 274.571 278.143 276.179 278.143 278.143C278.143 280.107 276.536 281.714 274.571 281.714V274.571Z" fill="#A3CEF1"/>
<path d="M206.714 303.143H199.571V296C199.571 294.036 197.964 292.429 196 292.429H171C169.036 292.429 167.429 290.821 167.429 288.857V274.571C167.429 273.607 167.821 272.714 168.464 272.036L173.071 267.429C174.464 266.036 176.714 266.036 178.107 267.429C179.5 268.821 179.5 271.071 178.107 272.464L174.536 276.036V285.286H195.964C201.893 285.286 206.679 290.071 206.679 296V303.143H206.714Z" fill="#6096BA"/>
<path d="M317.429 303.143H138.857V310.286H317.429V303.143Z" fill="#A3CEF1"/>
<path d="M206.714 221C206.321 219.071 207.571 217.179 209.5 216.786L238.857 210.929V200.714C238.857 183.607 225.964 168.643 208.929 167.5C190.214 166.25 174.571 181.107 174.571 199.571V210.286H181.714V217.429H174.571C170.643 217.429 167.429 214.214 167.429 210.286V200.714C167.429 180.286 182.571 162.357 202.929 160.464C226.286 158.25 246 176.643 246 199.571V210.929C246 214.321 243.607 217.25 240.25 217.929L210.893 223.786C208.964 224.179 207.071 222.929 206.679 221H206.714Z" fill="#6096BA"/>
<path d="M310.286 110.286H281.714V138.857H310.286V110.286Z" fill="#F5DD90"/>
<path d="M260.286 181.714C266.203 181.714 271 176.917 271 171C271 165.083 266.203 160.286 260.286 160.286C254.368 160.286 249.571 165.083 249.571 171C249.571 176.917 254.368 181.714 260.286 181.714Z" fill="#274C77"/>
<path d="M296 181.714C301.917 181.714 306.714 176.917 306.714 171C306.714 165.083 301.917 160.286 296 160.286C290.083 160.286 285.286 165.083 285.286 171C285.286 176.917 290.083 181.714 296 181.714Z" fill="#6096BA"/>
<path d="M331.714 181.714C337.632 181.714 342.429 176.917 342.429 171C342.429 165.083 337.632 160.286 331.714 160.286C325.797 160.286 321 165.083 321 171C321 176.917 325.797 181.714 331.714 181.714Z" fill="#274C77"/>
<path d="M278.143 221C284.06 221 288.857 216.203 288.857 210.286C288.857 204.368 284.06 199.571 278.143 199.571C272.226 199.571 267.429 204.368 267.429 210.286C267.429 216.203 272.226 221 278.143 221Z" fill="#274C77"/>
<path d="M313.857 221C319.775 221 324.571 216.203 324.571 210.286C324.571 204.368 319.775 199.571 313.857 199.571C307.94 199.571 303.143 204.368 303.143 210.286C303.143 216.203 307.94 221 313.857 221Z" fill="#274C77"/>
<path d="M260.286 185.286C252.393 185.286 246 178.893 246 171C246 163.107 252.393 156.714 260.286 156.714C268.179 156.714 274.571 163.107 274.571 171C274.571 178.893 268.179 185.286 260.286 185.286ZM260.286 163.857C256.357 163.857 253.143 167.071 253.143 171C253.143 174.929 256.357 178.143 260.286 178.143C264.214 178.143 267.429 174.929 267.429 171C267.429 167.071 264.214 163.857 260.286 163.857Z" fill="#F5DD90"/>
<path d="M296 185.286C288.107 185.286 281.714 178.893 281.714 171C281.714 163.107 288.107 156.714 296 156.714C303.893 156.714 310.286 163.107 310.286 171C310.286 178.893 303.893 185.286 296 185.286ZM296 163.857C292.071 163.857 288.857 167.071 288.857 171C288.857 174.929 292.071 178.143 296 178.143C299.929 178.143 303.143 174.929 303.143 171C303.143 167.071 299.929 163.857 296 163.857Z" fill="#F5DD90"/>
<path d="M331.714 185.286C323.821 185.286 317.429 178.893 317.429 171C317.429 163.107 323.821 156.714 331.714 156.714C339.607 156.714 346 163.107 346 171C346 178.893 339.607 185.286 331.714 185.286ZM331.714 163.857C327.786 163.857 324.571 167.071 324.571 171C324.571 174.929 327.786 178.143 331.714 178.143C335.643 178.143 338.857 174.929 338.857 171C338.857 167.071 335.643 163.857 331.714 163.857Z" fill="#F5DD90"/>
<path d="M278.143 224.571C270.25 224.571 263.857 218.179 263.857 210.286C263.857 202.393 270.25 196 278.143 196C286.036 196 292.429 202.393 292.429 210.286C292.429 218.179 286.036 224.571 278.143 224.571ZM278.143 203.143C274.214 203.143 271 206.357 271 210.286C271 214.214 274.214 217.429 278.143 217.429C282.071 217.429 285.286 214.214 285.286 210.286C285.286 206.357 282.071 203.143 278.143 203.143Z" fill="#F5DD90"/>
<path d="M313.857 224.571C305.964 224.571 299.571 218.179 299.571 210.286C299.571 202.393 305.964 196 313.857 196C321.75 196 328.143 202.393 328.143 210.286C328.143 218.179 321.75 224.571 313.857 224.571ZM313.857 203.143C309.929 203.143 306.714 206.357 306.714 210.286C306.714 214.214 309.929 217.429 313.857 217.429C317.786 217.429 321 214.214 321 210.286C321 206.357 317.786 203.143 313.857 203.143Z" fill="#F5DD90"/>
<path d="M167.485 125.619C168.984 126.205 170.377 126.652 171.645 126.965L171.663 126.97C173.933 127.529 175.737 127.641 177.019 127.412C177.381 127.347 177.686 127.259 177.943 127.153C178.57 126.89 178.915 126.515 179.097 126.128C179.306 125.683 179.402 125.037 179.281 124.16C179.216 123.689 179.088 123.15 178.88 122.538C178.849 122.445 178.815 122.35 178.78 122.255C178.499 121.486 178.111 120.654 177.621 119.77L177.595 119.723C177.524 119.597 177.451 119.47 177.377 119.341C176.723 118.217 175.91 117.017 174.944 115.764L174.934 115.75C171.608 111.438 166.624 106.681 160.636 102.428C154.289 97.9189 148.145 94.9205 143.389 93.6639C143.252 93.6278 143.117 93.5933 142.984 93.5603L142.958 93.5543C140.688 92.9952 138.885 92.8824 137.603 93.1118C137.09 93.2037 136.691 93.342 136.382 93.5127C135.941 93.756 135.68 94.0648 135.525 94.3959C135.257 94.9666 135.188 95.8421 135.468 97.0405C135.555 97.4151 135.678 97.8239 135.841 98.2686C136.022 98.7618 136.245 99.28 136.511 99.8202C136.549 99.8974 136.588 99.9753 136.628 100.054L136.698 100.189C136.779 100.346 136.864 100.504 136.951 100.664C137.649 101.935 138.561 103.312 139.678 104.76L139.684 104.769C140.884 106.325 142.308 107.95 143.93 109.597C144.299 109.971 144.641 110.315 144.959 110.632L145.016 109.898C145.255 106.836 145.375 105.305 146.413 104.759C147.452 104.214 148.721 105.015 151.26 106.617L151.917 107.031C152.639 107.486 152.999 107.714 153.415 107.771C153.83 107.828 154.254 107.707 155.1 107.467L155.871 107.248C158.85 106.401 160.339 105.978 161.136 106.775C161.934 107.572 161.51 109.062 160.664 112.041L160.445 112.811C160.204 113.658 160.084 114.081 160.141 114.497C160.198 114.912 160.425 115.273 160.88 115.995L161.295 116.651C162.897 119.19 163.698 120.46 163.152 121.498C162.607 122.537 161.075 122.656 158.013 122.895L157.221 122.957C156.351 123.025 155.916 123.059 155.535 123.259C155.155 123.459 154.873 123.802 154.307 124.489L153.793 125.114C151.804 127.529 150.809 128.737 149.675 128.582C148.541 128.427 148.018 127.011 146.972 124.18L146.701 123.447C146.404 122.643 146.255 122.24 145.963 121.948C145.671 121.656 145.269 121.508 144.464 121.21L143.732 120.94C140.901 119.894 139.485 119.371 139.33 118.236C139.174 117.102 140.382 116.108 142.798 114.119L143.129 113.846C142.617 113.343 142.039 112.766 141.386 112.103C139.406 110.093 137.663 108.071 136.224 106.11C135.932 105.712 135.653 105.318 135.387 104.926C135.104 104.509 134.835 104.095 134.582 103.686C134.45 103.472 134.322 103.26 134.199 103.049C133.958 102.639 133.734 102.233 133.527 101.832C133.448 101.68 133.371 101.528 133.296 101.375C132.982 100.736 132.712 100.109 132.488 99.4974C132.29 98.9578 132.122 98.4132 131.995 97.8699C131.575 96.093 131.589 94.3751 132.291 92.8788C132.882 91.6203 133.846 90.7574 135.003 90.2103C135.671 89.895 136.403 89.6846 137.165 89.5639C139.213 89.2395 141.667 89.5152 144.301 90.211C149.593 91.609 156.126 94.8432 162.704 99.516C169.289 104.194 174.8 109.518 178.38 114.391C179.565 116.003 180.56 117.594 181.311 119.12C181.551 119.608 181.767 120.089 181.956 120.562C182.067 120.841 182.17 121.117 182.262 121.39C182.991 123.538 183.215 125.76 182.33 127.645C181.682 129.026 180.6 129.921 179.305 130.452C178.782 130.668 178.225 130.824 177.648 130.928C177.158 131.015 176.643 131.067 176.109 131.087C176.026 131.09 175.943 131.092 175.86 131.093C175.512 131.099 175.155 131.092 174.789 131.071C174.073 131.031 173.323 130.941 172.544 130.805C170.581 130.462 168.433 129.824 166.184 128.945C165.265 128.585 164.812 127.549 165.172 126.631C165.531 125.713 166.567 125.259 167.485 125.619Z" fill="#FFDB5B"/>
<g opacity="0.5">
<path fill-rule="evenodd" clip-rule="evenodd" d="M181.37 96.3783C182.147 96.9852 182.285 98.1074 181.678 98.8848L181.413 99.2243C181.708 100.791 182.427 102.241 183.487 103.404C184.151 104.133 184.098 105.262 183.37 105.926C182.641 106.591 181.511 106.538 180.847 105.809C179.774 104.632 178.952 103.256 178.416 101.768C178.167 101.917 177.916 102.052 177.655 102.175C177.37 102.31 177.081 102.427 176.782 102.531C177.556 103.939 178.048 105.499 178.222 107.12C178.326 108.101 177.616 108.981 176.635 109.085C175.654 109.19 174.775 108.48 174.67 107.499C174.501 105.916 173.904 104.424 172.959 103.188L172.583 103.175C171.597 103.142 170.825 102.316 170.858 101.33C170.892 100.344 171.717 99.5723 172.703 99.6055L173.673 99.6381C174.925 99.3908 175.572 99.2094 176.129 98.946C176.689 98.6815 177.247 98.2925 178.251 97.4718L178.863 96.6869C179.47 95.9096 180.592 95.7714 181.37 96.3783Z" fill="white"/>
</g>
</g>
<path d="M522.102 278.705L540.083 300.909M542.194 280.816L519.99 298.797" stroke="#FFB13D" stroke-width="10" stroke-linecap="round" stroke-linejoin="round"/>
<path d="M251.673 30.4188L269.654 52.623M271.766 32.5306L249.562 50.5112" stroke="#FFB13D" stroke-width="10" stroke-linecap="round" stroke-linejoin="round"/>
<path d="M81.2857 324.714V353.286M95.5714 339H67" stroke="#FFB13D" stroke-width="10" stroke-linecap="round" stroke-linejoin="round"/>
<path d="M393.286 193.714V222.286M407.571 208H379" stroke="#FFB13D" stroke-width="10" stroke-linecap="round" stroke-linejoin="round"/>
<path d="M346 61.7143C353.89 61.7143 360.286 55.3184 360.286 47.4286C360.286 39.5388 353.89 33.1429 346 33.1429C338.11 33.1429 331.714 39.5388 331.714 47.4286C331.714 55.3184 338.11 61.7143 346 61.7143Z" stroke="#D971FE" stroke-width="3" stroke-linecap="round" stroke-linejoin="round"/>
<path d="M160.286 400.286C168.175 400.286 174.571 393.89 174.571 386C174.571 378.11 168.175 371.714 160.286 371.714C152.396 371.714 146 378.11 146 386C146 393.89 152.396 400.286 160.286 400.286Z" stroke="#BBFF65" stroke-width="2" stroke-linecap="round" stroke-linejoin="round"/>
<path d="M521.286 102.571C529.175 102.571 535.571 96.1755 535.571 88.2857C535.571 80.3959 529.175 74 521.286 74C513.396 74 507 80.3959 507 88.2857C507 96.1755 513.396 102.571 521.286 102.571Z" stroke="#BBFF65" stroke-width="2" stroke-linecap="round" stroke-linejoin="round"/>
<path d="M393.286 422.571C401.175 422.571 407.571 416.175 407.571 408.286C407.571 400.396 401.175 394 393.286 394C385.396 394 379 400.396 379 408.286C379 416.175 385.396 422.571 393.286 422.571Z" stroke="#BBFF65" stroke-width="5" stroke-linecap="round" stroke-linejoin="round"/>
<path d="M440.43 20.8431H435.269L439.513 16.6085C439.785 16.3375 439.785 15.8971 439.513 15.5922C439.242 15.3212 438.8 15.3212 438.495 15.5922L434.25 19.8268V14.7114C434.25 14.3049 433.945 14 433.537 14C433.13 14 432.824 14.3049 432.824 14.7114V19.8607L428.58 15.5922C428.309 15.3212 427.867 15.3212 427.562 15.5922C427.29 15.8632 427.29 16.3036 427.562 16.6085L431.806 20.8431H426.713C426.306 20.8431 426 21.148 426 21.5545C426 21.961 426.306 22.2659 426.713 22.2659H431.874L427.63 26.5005C427.358 26.7715 427.358 27.2119 427.63 27.5168C427.766 27.6523 427.935 27.72 428.139 27.72C428.309 27.72 428.512 27.6523 428.648 27.5168L432.892 23.2822V28.4314C432.892 28.838 433.198 29.1429 433.605 29.1429C434.013 29.1429 434.318 28.838 434.318 28.4314V23.2822L438.562 27.5168C438.698 27.6523 438.868 27.72 439.072 27.72C439.242 27.72 439.445 27.6523 439.581 27.5168C439.853 27.2458 439.853 26.8054 439.581 26.5005L435.269 22.2659H440.43C440.837 22.2659 441.143 21.961 441.143 21.5545C441.143 21.148 440.803 20.8431 440.43 20.8431Z" fill="#FF75F1"/>
<path d="M400.144 306.843H394.983L399.227 302.609C399.499 302.337 399.499 301.897 399.227 301.592C398.956 301.321 398.514 301.321 398.209 301.592L393.965 305.827V300.711C393.965 300.305 393.659 300 393.252 300C392.844 300 392.539 300.305 392.539 300.711V305.861L388.295 301.592C388.023 301.321 387.582 301.321 387.276 301.592C387.004 301.863 387.004 302.304 387.276 302.609L391.52 306.843H386.427C386.02 306.843 385.714 307.148 385.714 307.554C385.714 307.961 386.02 308.266 386.427 308.266H391.588L387.344 312.5C387.072 312.771 387.072 313.212 387.344 313.517C387.48 313.652 387.65 313.72 387.853 313.72C388.023 313.72 388.227 313.652 388.363 313.517L392.607 309.282V314.431C392.607 314.838 392.912 315.143 393.32 315.143C393.727 315.143 394.033 314.838 394.033 314.431V309.282L398.277 313.517C398.413 313.652 398.582 313.72 398.786 313.72C398.956 313.72 399.16 313.652 399.295 313.517C399.567 313.246 399.567 312.805 399.295 312.5L394.983 308.266H400.144C400.552 308.266 400.857 307.961 400.857 307.554C400.857 307.148 400.518 306.843 400.144 306.843Z" fill="#FF75F1"/>
<ellipse cx="401.286" cy="104" rx="14.2857" ry="14.2857" fill="#FD9C6B"/>
<ellipse cx="386.143" cy="348.857" rx="7.14286" ry="7.14286" fill="#BB64FF"/>
<ellipse cx="419.143" cy="255.429" rx="14.2857" ry="14.2857" fill="#FF6363"/>
<ellipse cx="226.857" cy="332.857" rx="7.14286" ry="7.14286" fill="#FFD248"/>
<ellipse cx="113.286" cy="190" rx="14.2857" ry="14.2857" fill="#61FD83"/>
<ellipse cx="485.143" cy="371.857" rx="7.14286" ry="7.14286" fill="#6096BA"/>
<path d="M481.771 347.904C483.269 348.491 484.663 348.938 485.931 349.251L485.949 349.255C488.219 349.815 490.023 349.927 491.304 349.698C491.666 349.633 491.971 349.545 492.229 349.439C492.856 349.175 493.201 348.801 493.383 348.414C493.591 347.969 493.688 347.323 493.567 346.445C493.502 345.974 493.374 345.435 493.166 344.823C493.134 344.73 493.101 344.636 493.066 344.541C492.784 343.772 492.397 342.94 491.907 342.056L491.88 342.009C491.81 341.883 491.737 341.755 491.662 341.627C491.009 340.503 490.195 339.303 489.229 338.049L489.219 338.036C485.894 333.724 480.909 328.967 474.922 324.713C468.574 320.205 462.431 317.206 457.675 315.95C457.538 315.914 457.403 315.879 457.269 315.846L457.244 315.84C454.974 315.281 453.17 315.168 451.888 315.398C451.375 315.489 450.977 315.628 450.667 315.798C450.226 316.042 449.966 316.35 449.81 316.682C449.542 317.252 449.473 318.128 449.753 319.326C449.841 319.701 449.964 320.11 450.127 320.554C450.307 321.048 450.531 321.566 450.797 322.106C450.835 322.183 450.874 322.261 450.914 322.34L450.984 322.475C451.065 322.632 451.149 322.79 451.237 322.95C451.935 324.221 452.847 325.597 453.963 327.046L453.97 327.055C455.17 328.611 456.593 330.235 458.216 331.882C458.584 332.256 458.927 332.601 459.245 332.918L459.302 332.184C459.541 329.122 459.661 327.591 460.699 327.045C461.737 326.499 463.007 327.3 465.546 328.902L466.203 329.317C466.924 329.772 467.285 330 467.7 330.057C468.116 330.113 468.539 329.993 469.386 329.753L470.156 329.534C473.135 328.687 474.625 328.264 475.422 329.061C476.219 329.858 475.796 331.347 474.949 334.326L474.73 335.097C474.49 335.944 474.369 336.367 474.426 336.783C474.483 337.198 474.711 337.559 475.166 338.28L475.581 338.937C477.183 341.476 477.984 342.746 477.438 343.784C476.892 344.823 475.361 344.942 472.299 345.181L471.507 345.243C470.637 345.311 470.202 345.345 469.821 345.545C469.441 345.745 469.158 346.088 468.593 346.775L468.079 347.399C466.09 349.815 465.095 351.023 463.961 350.868C462.826 350.712 462.303 349.297 461.257 346.465L460.987 345.733C460.689 344.928 460.541 344.526 460.249 344.234C459.957 343.942 459.555 343.794 458.75 343.496L458.018 343.226C455.186 342.18 453.771 341.657 453.615 340.522C453.46 339.388 454.668 338.393 457.084 336.405L457.415 336.132C456.903 335.629 456.324 335.051 455.672 334.389C453.691 332.378 451.949 330.357 450.509 328.395C450.218 327.998 449.939 327.604 449.673 327.212C449.39 326.795 449.121 326.381 448.868 325.971C448.736 325.758 448.608 325.546 448.485 325.335C448.244 324.924 448.02 324.518 447.812 324.118C447.734 323.966 447.657 323.813 447.582 323.66C447.268 323.022 446.997 322.395 446.773 321.783C446.576 321.243 446.408 320.699 446.28 320.156C445.861 318.379 445.875 316.661 446.577 315.164C447.168 313.906 448.131 313.043 449.289 312.496C449.956 312.181 450.688 311.97 451.45 311.85C453.498 311.525 455.953 311.801 458.587 312.497C463.878 313.895 470.412 317.129 476.99 321.802C483.575 326.48 489.086 331.804 492.666 336.676C493.851 338.289 494.845 339.88 495.597 341.406C495.837 341.893 496.053 342.374 496.241 342.847C496.353 343.126 496.455 343.403 496.548 343.676C497.277 345.824 497.5 348.045 496.616 349.931C495.967 351.312 494.886 352.207 493.59 352.738C493.068 352.954 492.51 353.11 491.934 353.213C491.444 353.301 490.929 353.353 490.394 353.372C490.311 353.375 490.228 353.378 490.145 353.379C489.798 353.385 489.441 353.377 489.074 353.357C488.359 353.316 487.609 353.227 486.83 353.09C484.867 352.747 482.718 352.11 480.469 351.23C479.551 350.871 479.098 349.835 479.457 348.917C479.817 347.998 480.852 347.545 481.771 347.904Z" fill="white"/>
<defs>
<clipPath id="clip0_2_13">
<rect width="228.571" height="228.571" fill="white" transform="translate(131.714 88.8572)"/>
</clipPath>
</defs>
</svg>
