<svg width="400" height="400" viewBox="0 0 400 400" fill="none" xmlns="http://www.w3.org/2000/svg">
<g clip-path="url(#clip0_3_77)">
<path d="M187.282 310.291H194.563V313.932H187.282V310.291ZM186.371 306.65C184.864 306.65 183.641 307.873 183.641 309.381V314.842C183.641 316.35 184.864 317.573 186.371 317.573H189.102V319.393H174.539C173.532 319.393 172.719 320.207 172.719 321.213C172.719 322.22 173.532 323.034 174.539 323.034H180V324.854H177.269C175.762 324.854 174.539 326.077 174.539 327.585V333.046C174.539 334.554 175.762 335.777 177.269 335.777H186.371C187.879 335.777 189.102 334.554 189.102 333.046V327.585C189.102 326.077 187.879 324.854 186.371 324.854H183.641V323.034H198.204V324.854H195.473C193.966 324.854 192.743 326.077 192.743 327.585V333.046C192.743 334.554 193.966 335.777 195.473 335.777H204.575C206.083 335.777 207.306 334.554 207.306 333.046V327.585C207.306 326.077 206.083 324.854 204.575 324.854H201.845V323.034H207.306C208.313 323.034 209.126 322.22 209.126 321.213C209.126 320.207 208.313 319.393 207.306 319.393H192.743V317.573H195.473C196.981 317.573 198.204 316.35 198.204 314.842V309.381C198.204 307.873 196.981 306.65 195.473 306.65H186.371ZM178.18 332.136V328.495H185.461V332.136H178.18ZM196.384 328.495H203.665V332.136H196.384V328.495Z" fill="white"/>
<path d="M124.951 380.049H131.626V372.767H131.019C127.667 372.767 124.951 375.483 124.951 378.835V380.049ZM124.951 381.262V386.117C124.951 389.469 127.667 392.185 131.019 392.185H133.447C136.799 392.185 139.515 389.469 139.515 386.117V381.262H132.233H124.951ZM139.515 380.049V378.835C139.515 375.483 136.799 372.767 133.447 372.767H132.84V380.049H139.515Z" fill="white"/>
<path d="M67.7833 370.146C65.4985 370.146 63.6409 372.003 63.6409 374.288V390.857C63.6409 393.142 65.4985 395 67.7833 395H96.78C99.0648 395 100.922 393.142 100.922 390.857V374.288C100.922 372.003 99.0648 370.146 96.78 370.146H67.7833ZM68.8189 374.288H70.8901C71.4596 374.288 71.9257 374.754 71.9257 375.324V377.395C71.9257 377.964 71.4596 378.43 70.8901 378.43H68.8189C68.2493 378.43 67.7833 377.964 67.7833 377.395V375.324C67.7833 374.754 68.2493 374.288 68.8189 374.288ZM67.7833 381.537C67.7833 380.968 68.2493 380.501 68.8189 380.501H70.8901C71.4596 380.501 71.9257 380.968 71.9257 381.537V383.608C71.9257 384.178 71.4596 384.644 70.8901 384.644H68.8189C68.2493 384.644 67.7833 384.178 67.7833 383.608V381.537ZM68.8189 386.715H70.8901C71.4596 386.715 71.9257 387.181 71.9257 387.751V389.822C71.9257 390.391 71.4596 390.857 70.8901 390.857H68.8189C68.2493 390.857 67.7833 390.391 67.7833 389.822V387.751C67.7833 387.181 68.2493 386.715 68.8189 386.715ZM73.9969 375.324C73.9969 374.754 74.4629 374.288 75.0325 374.288H77.1037C77.6732 374.288 78.1393 374.754 78.1393 375.324V377.395C78.1393 377.964 77.6732 378.43 77.1037 378.43H75.0325C74.4629 378.43 73.9969 377.964 73.9969 377.395V375.324ZM75.0325 380.501H77.1037C77.6732 380.501 78.1393 380.968 78.1393 381.537V383.608C78.1393 384.178 77.6732 384.644 77.1037 384.644H75.0325C74.4629 384.644 73.9969 384.178 73.9969 383.608V381.537C73.9969 380.968 74.4629 380.501 75.0325 380.501ZM73.9969 387.751C73.9969 387.181 74.4629 386.715 75.0325 386.715H89.5308C90.1004 386.715 90.5664 387.181 90.5664 387.751V389.822C90.5664 390.391 90.1004 390.857 89.5308 390.857H75.0325C74.4629 390.857 73.9969 390.391 73.9969 389.822V387.751ZM81.246 374.288H83.3172C83.8868 374.288 84.3528 374.754 84.3528 375.324V377.395C84.3528 377.964 83.8868 378.43 83.3172 378.43H81.246C80.6765 378.43 80.2104 377.964 80.2104 377.395V375.324C80.2104 374.754 80.6765 374.288 81.246 374.288ZM80.2104 381.537C80.2104 380.968 80.6765 380.501 81.246 380.501H83.3172C83.8868 380.501 84.3528 380.968 84.3528 381.537V383.608C84.3528 384.178 83.8868 384.644 83.3172 384.644H81.246C80.6765 384.644 80.2104 384.178 80.2104 383.608V381.537ZM87.4596 374.288H89.5308C90.1004 374.288 90.5664 374.754 90.5664 375.324V377.395C90.5664 377.964 90.1004 378.43 89.5308 378.43H87.4596C86.8901 378.43 86.424 377.964 86.424 377.395V375.324C86.424 374.754 86.8901 374.288 87.4596 374.288ZM86.424 381.537C86.424 380.968 86.8901 380.501 87.4596 380.501H89.5308C90.1004 380.501 90.5664 380.968 90.5664 381.537V383.608C90.5664 384.178 90.1004 384.644 89.5308 384.644H87.4596C86.8901 384.644 86.424 384.178 86.424 383.608V381.537ZM93.6732 374.288H95.7444C96.314 374.288 96.78 374.754 96.78 375.324V377.395C96.78 377.964 96.314 378.43 95.7444 378.43H93.6732C93.1037 378.43 92.6376 377.964 92.6376 377.395V375.324C92.6376 374.754 93.1037 374.288 93.6732 374.288ZM92.6376 381.537C92.6376 380.968 93.1037 380.501 93.6732 380.501H95.7444C96.314 380.501 96.78 380.968 96.78 381.537V383.608C96.78 384.178 96.314 384.644 95.7444 384.644H93.6732C93.1037 384.644 92.6376 384.178 92.6376 383.608V381.537ZM93.6732 386.715H95.7444C96.314 386.715 96.78 387.181 96.78 387.751V389.822C96.78 390.391 96.314 390.857 95.7444 390.857H93.6732C93.1037 390.857 92.6376 390.391 92.6376 389.822V387.751C92.6376 387.181 93.1037 386.715 93.6732 386.715Z" fill="white"/>
<path d="M105.437 297.913V330.534H58.835V297.913H105.437ZM58.835 288.592C53.6943 288.592 49.5146 292.772 49.5146 297.913V330.534C49.5146 335.675 53.6943 339.854 58.835 339.854H75.9176L74.3593 344.515H63.4952C60.9176 344.515 58.835 346.597 58.835 349.175C58.835 351.752 60.9176 353.835 63.4952 353.835H100.777C103.354 353.835 105.437 351.752 105.437 349.175C105.437 346.597 103.354 344.515 100.777 344.515H89.8981L88.3399 339.854H105.437C110.578 339.854 114.757 335.675 114.757 330.534V297.913C114.757 292.772 110.578 288.592 105.437 288.592H58.835ZM126.408 288.592C122.549 288.592 119.418 291.723 119.418 295.583V346.845C119.418 350.704 122.549 353.835 126.408 353.835H135.728C139.587 353.835 142.719 350.704 142.719 346.845V295.583C142.719 291.723 139.587 288.592 135.728 288.592H126.408ZM128.738 297.913H133.398C134.68 297.913 135.728 298.961 135.728 300.243C135.728 301.524 134.68 302.573 133.398 302.573H128.738C127.456 302.573 126.408 301.524 126.408 300.243C126.408 298.961 127.456 297.913 128.738 297.913ZM126.408 309.563C126.408 308.282 127.456 307.233 128.738 307.233H133.398C134.68 307.233 135.728 308.282 135.728 309.563C135.728 310.845 134.68 311.893 133.398 311.893H128.738C127.456 311.893 126.408 310.845 126.408 309.563ZM131.068 332.864C132.304 332.864 133.489 333.355 134.363 334.229C135.237 335.103 135.728 336.288 135.728 337.524C135.728 338.76 135.237 339.946 134.363 340.82C133.489 341.694 132.304 342.185 131.068 342.185C129.832 342.185 128.647 341.694 127.773 340.82C126.899 339.946 126.408 338.76 126.408 337.524C126.408 336.288 126.899 335.103 127.773 334.229C128.647 333.355 129.832 332.864 131.068 332.864Z" fill="white"/>
<path d="M260.243 380.049H253.568V372.767H254.175C257.527 372.767 260.243 375.483 260.243 378.835V380.049ZM260.243 381.262V386.117C260.243 389.469 257.527 392.185 254.175 392.185H251.748C248.395 392.185 245.68 389.469 245.68 386.117V381.262H252.961H260.243ZM245.68 380.049V378.835C245.68 375.483 248.395 372.767 251.748 372.767H252.354V380.049H245.68Z" fill="white"/>
<path d="M317.411 370.146C319.696 370.146 321.553 372.003 321.553 374.288V390.857C321.553 393.142 319.696 395 317.411 395H288.414C286.13 395 284.272 393.142 284.272 390.857V374.288C284.272 372.003 286.13 370.146 288.414 370.146H317.411ZM316.375 374.288H314.304C313.735 374.288 313.269 374.754 313.269 375.324V377.395C313.269 377.964 313.735 378.43 314.304 378.43H316.375C316.945 378.43 317.411 377.964 317.411 377.395V375.324C317.411 374.754 316.945 374.288 316.375 374.288ZM317.411 381.537C317.411 380.968 316.945 380.501 316.375 380.501H314.304C313.735 380.501 313.269 380.968 313.269 381.537V383.608C313.269 384.178 313.735 384.644 314.304 384.644H316.375C316.945 384.644 317.411 384.178 317.411 383.608V381.537ZM316.375 386.715H314.304C313.735 386.715 313.269 387.181 313.269 387.751V389.822C313.269 390.391 313.735 390.857 314.304 390.857H316.375C316.945 390.857 317.411 390.391 317.411 389.822V387.751C317.411 387.181 316.945 386.715 316.375 386.715ZM311.197 375.324C311.197 374.754 310.731 374.288 310.162 374.288H308.091C307.521 374.288 307.055 374.754 307.055 375.324V377.395C307.055 377.964 307.521 378.43 308.091 378.43H310.162C310.731 378.43 311.197 377.964 311.197 377.395V375.324ZM310.162 380.501H308.091C307.521 380.501 307.055 380.968 307.055 381.537V383.608C307.055 384.178 307.521 384.644 308.091 384.644H310.162C310.731 384.644 311.197 384.178 311.197 383.608V381.537C311.197 380.968 310.731 380.501 310.162 380.501ZM311.197 387.751C311.197 387.181 310.731 386.715 310.162 386.715H295.663C295.094 386.715 294.628 387.181 294.628 387.751V389.822C294.628 390.391 295.094 390.857 295.663 390.857H310.162C310.731 390.857 311.197 390.391 311.197 389.822V387.751ZM303.948 374.288H301.877C301.308 374.288 300.841 374.754 300.841 375.324V377.395C300.841 377.964 301.308 378.43 301.877 378.43H303.948C304.518 378.43 304.984 377.964 304.984 377.395V375.324C304.984 374.754 304.518 374.288 303.948 374.288ZM304.984 381.537C304.984 380.968 304.518 380.501 303.948 380.501H301.877C301.308 380.501 300.841 380.968 300.841 381.537V383.608C300.841 384.178 301.308 384.644 301.877 384.644H303.948C304.518 384.644 304.984 384.178 304.984 383.608V381.537ZM297.735 374.288H295.663C295.094 374.288 294.628 374.754 294.628 375.324V377.395C294.628 377.964 295.094 378.43 295.663 378.43H297.735C298.304 378.43 298.77 377.964 298.77 377.395V375.324C298.77 374.754 298.304 374.288 297.735 374.288ZM298.77 381.537C298.77 380.968 298.304 380.501 297.735 380.501H295.663C295.094 380.501 294.628 380.968 294.628 381.537V383.608C294.628 384.178 295.094 384.644 295.663 384.644H297.735C298.304 384.644 298.77 384.178 298.77 383.608V381.537ZM291.521 374.288H289.45C288.88 374.288 288.414 374.754 288.414 375.324V377.395C288.414 377.964 288.88 378.43 289.45 378.43H291.521C292.091 378.43 292.557 377.964 292.557 377.395V375.324C292.557 374.754 292.091 374.288 291.521 374.288ZM292.557 381.537C292.557 380.968 292.091 380.501 291.521 380.501H289.45C288.88 380.501 288.414 380.968 288.414 381.537V383.608C288.414 384.178 288.88 384.644 289.45 384.644H291.521C292.091 384.644 292.557 384.178 292.557 383.608V381.537ZM291.521 386.715H289.45C288.88 386.715 288.414 387.181 288.414 387.751V389.822C288.414 390.391 288.88 390.857 289.45 390.857H291.521C292.091 390.857 292.557 390.391 292.557 389.822V387.751C292.557 387.181 292.091 386.715 291.521 386.715Z" fill="white"/>
<path d="M279.757 297.913V330.534H326.359V297.913H279.757ZM326.359 288.592C331.5 288.592 335.68 292.772 335.68 297.913V330.534C335.68 335.675 331.5 339.854 326.359 339.854H309.277L310.835 344.515H321.699C324.277 344.515 326.359 346.597 326.359 349.175C326.359 351.752 324.277 353.835 321.699 353.835H284.418C281.84 353.835 279.757 351.752 279.757 349.175C279.757 346.597 281.84 344.515 284.418 344.515H295.296L296.854 339.854H279.757C274.617 339.854 270.437 335.675 270.437 330.534V297.913C270.437 292.772 274.617 288.592 279.757 288.592H326.359ZM258.786 288.592C262.646 288.592 265.777 291.723 265.777 295.583V346.845C265.777 350.704 262.646 353.835 258.786 353.835H249.466C245.607 353.835 242.476 350.704 242.476 346.845V295.583C242.476 291.723 245.607 288.592 249.466 288.592H258.786ZM256.456 297.913H251.796C250.515 297.913 249.466 298.961 249.466 300.243C249.466 301.524 250.515 302.573 251.796 302.573H256.456C257.738 302.573 258.786 301.524 258.786 300.243C258.786 298.961 257.738 297.913 256.456 297.913ZM258.786 309.563C258.786 308.282 257.738 307.233 256.456 307.233H251.796C250.515 307.233 249.466 308.282 249.466 309.563C249.466 310.845 250.515 311.893 251.796 311.893H256.456C257.738 311.893 258.786 310.845 258.786 309.563ZM254.126 332.864C252.89 332.864 251.705 333.355 250.831 334.229C249.957 335.103 249.466 336.288 249.466 337.524C249.466 338.76 249.957 339.946 250.831 340.82C251.705 341.694 252.89 342.185 254.126 342.185C255.362 342.185 256.548 341.694 257.422 340.82C258.296 339.946 258.786 338.76 258.786 337.524C258.786 336.288 258.296 335.103 257.422 334.229C256.548 333.355 255.362 332.864 254.126 332.864Z" fill="white"/>
<path d="M181.307 101.019C181.307 99.1654 182.044 97.3874 183.355 96.0765C184.666 94.7655 186.444 94.0291 188.298 94.0291C190.151 94.0291 191.929 94.7655 193.24 96.0765C194.551 97.3874 195.288 99.1654 195.288 101.019C195.288 102.873 194.551 104.651 193.24 105.962C191.929 107.273 190.151 108.01 188.298 108.01C186.444 108.01 184.666 107.273 183.355 105.962C182.044 104.651 181.307 102.873 181.307 101.019ZM187.132 145.291V163.932C187.132 166.51 185.05 168.592 182.472 168.592C179.895 168.592 177.812 166.51 177.812 163.932V131.442L173.647 138.374C172.322 140.573 169.453 141.286 167.254 139.961C165.055 138.636 164.341 135.767 165.666 133.568L174.157 119.442C176.691 115.233 181.234 112.655 186.142 112.655H190.467C195.375 112.655 199.919 115.233 202.453 119.442L210.943 133.568C212.268 135.767 211.555 138.636 209.356 139.961C207.157 141.286 204.288 140.573 202.963 138.374L198.783 131.442V163.932C198.783 166.51 196.7 168.592 194.123 168.592C191.545 168.592 189.463 166.51 189.463 163.932V145.291H187.132Z" fill="white"/>
<path d="M107.039 210.534C107.039 205.393 111.218 201.214 116.359 201.214H162.961C168.102 201.214 172.282 205.393 172.282 210.534V257.136C172.282 262.277 168.102 266.456 162.961 266.456H116.359C111.218 266.456 107.039 262.277 107.039 257.136V210.534Z" fill="white"/>
<path d="M155.68 182.573C155.68 174.862 159.859 168.592 165 168.592H211.602C216.743 168.592 220.922 174.862 220.922 182.573V252.476C220.922 260.187 216.743 266.456 211.602 266.456H165C159.859 266.456 155.68 260.187 155.68 252.476V182.573Z" fill="white"/>
<path d="M205.34 228.01C205.34 224.476 209.519 221.602 214.66 221.602H261.262C266.403 221.602 270.583 224.476 270.583 228.01V260.049C270.583 263.583 266.403 266.456 261.262 266.456H214.66C209.519 266.456 205.34 263.583 205.34 260.049V228.01Z" fill="white"/>
<path d="M179.13 114.061C179.031 113.915 178.98 113.74 178.98 113.566C178.98 113.07 179.381 112.67 179.876 112.67H183.855C184.263 112.67 184.646 112.885 184.853 113.234L187.347 117.388C185.592 117.61 184.023 118.43 182.854 119.642L179.13 114.061ZM197.468 114.061L193.747 119.642C192.579 118.43 191.01 117.61 189.255 117.388L191.749 113.234C191.96 112.885 192.338 112.67 192.746 112.67H196.726C197.221 112.67 197.621 113.07 197.621 113.566C197.621 113.74 197.57 113.915 197.472 114.061H197.468ZM181.893 124.903C181.893 123.203 182.568 121.574 183.77 120.372C184.972 119.17 186.601 118.495 188.301 118.495C190 118.495 191.63 119.17 192.832 120.372C194.034 121.574 194.709 123.203 194.709 124.903C194.709 126.602 194.034 128.232 192.832 129.434C191.63 130.636 190 131.311 188.301 131.311C186.601 131.311 184.972 130.636 183.77 129.434C182.568 128.232 181.893 126.602 181.893 124.903ZM188.607 121.448C188.483 121.193 188.122 121.193 187.995 121.448L187.179 123.101C187.129 123.203 187.034 123.272 186.925 123.286L185.097 123.552C184.817 123.592 184.707 123.934 184.908 124.135L186.229 125.424C186.309 125.504 186.346 125.613 186.328 125.726L186.014 127.542C185.967 127.819 186.258 128.034 186.51 127.903L188.141 127.044C188.239 126.993 188.359 126.993 188.457 127.044L190.088 127.903C190.34 128.034 190.631 127.823 190.584 127.542L190.271 125.726C190.252 125.617 190.289 125.504 190.369 125.424L191.69 124.135C191.894 123.938 191.781 123.596 191.501 123.552L189.677 123.286C189.568 123.272 189.47 123.199 189.422 123.101L188.607 121.448Z" fill="black"/>
<path d="M257.621 49.466C257.621 45.4491 256.026 41.5968 253.185 38.7564C250.345 35.916 246.493 34.3203 242.476 34.3203C238.459 34.3203 234.607 35.916 231.766 38.7564C228.926 41.5968 227.33 45.4491 227.33 49.466C227.33 53.4828 228.926 57.3352 231.766 60.1755C234.607 63.0159 238.459 64.6116 242.476 64.6116C246.493 64.6116 250.345 63.0159 253.185 60.1755C256.026 57.3352 257.621 53.4828 257.621 49.466ZM223.835 49.466C223.835 44.5221 225.799 39.7808 229.295 36.285C232.791 32.7891 237.532 30.8252 242.476 30.8252C247.42 30.8252 252.161 32.7891 255.657 36.285C259.153 39.7808 261.117 44.5221 261.117 49.466C261.117 54.4098 259.153 59.1512 255.657 62.647C252.161 66.1428 247.42 68.1067 242.476 68.1067C237.532 68.1067 232.791 66.1428 229.295 62.647C225.799 59.1512 223.835 54.4098 223.835 49.466ZM236.767 53.9878C237.874 55.182 239.767 56.4563 242.476 56.4563C245.184 56.4563 247.078 55.182 248.184 53.9878C248.84 53.2815 249.947 53.2305 250.653 53.8859C251.359 54.5412 251.41 55.648 250.755 56.3543C249.153 58.0873 246.386 59.9514 242.483 59.9514C238.58 59.9514 235.806 58.0946 234.211 56.3543C233.556 55.648 233.6 54.5412 234.313 53.8859C235.027 53.2305 236.126 53.2742 236.782 53.9878H236.767ZM234.35 45.9708C234.35 45.3528 234.595 44.7602 235.032 44.3232C235.469 43.8862 236.062 43.6407 236.68 43.6407C237.298 43.6407 237.89 43.8862 238.327 44.3232C238.764 44.7602 239.01 45.3528 239.01 45.9708C239.01 46.5888 238.764 47.1815 238.327 47.6185C237.89 48.0554 237.298 48.3009 236.68 48.3009C236.062 48.3009 235.469 48.0554 235.032 47.6185C234.595 47.1815 234.35 46.5888 234.35 45.9708ZM246.422 47.5509C245.869 48.1407 244.951 48.1699 244.362 47.6165C243.772 47.0631 243.743 46.1456 244.296 45.5558C245.352 44.4271 246.859 43.932 248.272 43.932C249.684 43.932 251.192 44.4271 252.248 45.5558C252.801 46.1456 252.765 47.0631 252.182 47.6165C251.6 48.1699 250.675 48.1334 250.121 47.5509C249.721 47.1286 249.044 46.8446 248.272 46.8446C247.5 46.8446 246.823 47.1213 246.422 47.5509Z" fill="#FFEF62"/>
<path d="M223.213 71.5C225.092 70.1311 227.524 69.7816 229.708 70.568C233.567 71.9661 237.893 72.767 242.495 72.767C260.655 72.767 272.786 61.0437 272.786 49.4661C272.786 37.8884 260.655 26.1651 242.495 26.1651C224.334 26.1651 212.203 37.8884 212.203 49.4661C212.203 54.1263 214.009 58.6117 217.402 62.4564C218.655 63.869 219.266 65.7331 219.121 67.6263C218.917 70.2622 218.291 72.6797 217.475 74.8204C219.951 73.6699 222.004 72.3884 223.213 71.5146V71.5ZM208.3 77.4127C208.562 77.0195 208.81 76.6263 209.043 76.2331C210.499 73.8156 211.883 70.6408 212.16 67.0729C207.791 62.1068 205.213 56.034 205.213 49.4661C205.213 32.7331 221.902 19.1748 242.495 19.1748C263.087 19.1748 279.776 32.7331 279.776 49.4661C279.776 66.1991 263.087 79.7573 242.495 79.7573C237.092 79.7573 231.965 78.8253 227.334 77.1505C225.601 78.4175 222.776 80.1505 219.427 81.6068C217.228 82.568 214.723 83.4418 212.13 83.9515C212.014 83.9806 211.897 83.9952 211.781 84.0243C211.14 84.1408 210.514 84.2428 209.859 84.301C209.829 84.301 209.786 84.3156 209.757 84.3156C209.014 84.3884 208.271 84.4321 207.529 84.4321C206.582 84.4321 205.737 83.8641 205.373 82.9903C205.009 82.1166 205.213 81.1263 205.868 80.4564C206.465 79.8447 207.004 79.1894 207.514 78.4903C207.762 78.1554 207.995 77.8204 208.213 77.4855C208.228 77.4564 208.242 77.4418 208.257 77.4127H208.3Z" fill="white"/>
<path d="M139.1 133.058C139.1 131.204 138.364 129.426 137.053 128.115C135.742 126.804 133.964 126.068 132.11 126.068C130.256 126.068 128.478 126.804 127.167 128.115C125.856 129.426 125.119 131.204 125.119 133.058C125.119 134.912 125.856 136.69 127.167 138.001C128.478 139.312 130.256 140.048 132.11 140.048C133.964 140.048 135.742 139.312 137.053 138.001C138.364 136.69 139.1 134.912 139.1 133.058ZM133.275 177.33V195.971C133.275 198.548 135.357 200.631 137.935 200.631C140.513 200.631 142.595 198.548 142.595 195.971V163.48L146.76 170.413C148.085 172.612 150.954 173.325 153.153 172C155.352 170.675 156.066 167.806 154.741 165.607L146.251 151.48C143.717 147.272 139.173 144.694 134.265 144.694H129.94C125.032 144.694 120.488 147.272 117.954 151.48L109.464 165.607C108.139 167.806 108.852 170.675 111.051 172C113.251 173.325 116.119 172.612 117.445 170.413L121.624 163.48V195.971C121.624 198.548 123.707 200.631 126.284 200.631C128.862 200.631 130.945 198.548 130.945 195.971V177.33H133.275Z" fill="white"/>
<path d="M101.563 124.073C99.6845 122.704 97.2525 122.354 95.068 123.141C91.2088 124.539 86.8835 125.34 82.2816 125.34C64.1214 125.34 51.9903 113.616 51.9903 102.039C51.9903 90.4611 64.1214 78.7378 82.2816 78.7378C100.442 78.7378 112.573 90.4611 112.573 102.039C112.573 106.699 110.767 111.184 107.374 115.029C106.121 116.442 105.51 118.306 105.655 120.199C105.859 122.835 106.485 125.252 107.301 127.393C104.825 126.243 102.772 124.961 101.563 124.087V124.073ZM116.476 129.985C116.214 129.592 115.966 129.199 115.733 128.806C114.277 126.388 112.893 123.214 112.617 119.646C116.985 114.68 119.563 108.607 119.563 102.039C119.563 85.3058 102.874 71.7476 82.2816 71.7476C61.6894 71.7476 45 85.3058 45 102.039C45 118.772 61.6894 132.33 82.2816 132.33C87.6845 132.33 92.8107 131.398 97.4418 129.723C99.1748 130.99 102 132.723 105.35 134.18C107.549 135.141 110.053 136.015 112.646 136.524C112.762 136.553 112.879 136.568 112.995 136.597C113.636 136.714 114.262 136.816 114.918 136.874C114.947 136.874 114.99 136.888 115.019 136.888C115.762 136.961 116.505 137.005 117.248 137.005C118.194 137.005 119.039 136.437 119.403 135.563C119.767 134.689 119.563 133.699 118.908 133.029C118.311 132.417 117.772 131.762 117.262 131.063C117.015 130.728 116.782 130.393 116.563 130.058C116.549 130.029 116.534 130.015 116.519 129.985H116.476Z" fill="white"/>
<path d="M237.23 154.029C237.23 152.175 237.966 150.397 239.277 149.086C240.588 147.775 242.366 147.039 244.22 147.039C246.074 147.039 247.852 147.775 249.163 149.086C250.474 150.397 251.21 152.175 251.21 154.029C251.21 155.883 250.474 157.661 249.163 158.972C247.852 160.283 246.074 161.019 244.22 161.019C242.366 161.019 240.588 160.283 239.277 158.972C237.966 157.661 237.23 155.883 237.23 154.029ZM243.055 198.301V216.942C243.055 219.519 240.972 221.602 238.395 221.602C235.817 221.602 233.734 219.519 233.734 216.942V184.451L229.569 191.383C228.244 193.583 225.375 194.296 223.176 192.971C220.977 191.646 220.264 188.777 221.589 186.578L230.079 172.451C232.613 168.243 237.157 165.665 242.065 165.665H246.39C251.298 165.665 255.841 168.243 258.375 172.451L266.865 186.578C268.191 188.777 267.477 191.646 265.278 192.971C263.079 194.296 260.21 193.583 258.885 191.383L254.705 184.451V216.942C254.705 219.519 252.623 221.602 250.045 221.602C247.467 221.602 245.385 219.519 245.385 216.942V198.301H243.055Z" fill="white"/>
<path d="M285.934 150.605C288.117 149.807 290.551 150.141 292.434 151.499C295.759 153.907 299.696 155.869 304.119 157.137C321.576 162.143 336.469 154.218 339.66 143.088C342.851 131.959 334.421 117.346 316.965 112.341C299.508 107.335 284.615 115.26 281.424 126.39C280.14 130.869 280.639 135.679 282.841 140.31C283.656 142.013 283.73 143.973 283.068 145.753C282.145 148.231 280.877 150.382 279.503 152.215C282.2 151.791 284.527 151.126 285.93 150.619L285.934 150.605ZM269.969 152.178C270.33 151.872 270.676 151.562 271.008 151.249C273.075 149.326 275.28 146.656 276.529 143.302C273.698 137.324 272.894 130.776 274.705 124.463C279.317 108.378 299.097 99.9452 318.891 105.621C338.686 111.297 350.992 128.93 346.379 145.015C341.767 161.1 321.987 169.533 302.193 163.857C296.999 162.368 292.328 160.059 288.338 157.172C286.323 157.913 283.13 158.8 279.508 159.276C277.13 159.594 274.481 159.744 271.849 159.519C271.729 159.515 271.613 159.497 271.493 159.493C270.845 159.428 270.214 159.354 269.568 159.229C269.54 159.221 269.494 159.223 269.466 159.215C268.732 159.08 268.006 158.917 267.293 158.713C266.383 158.452 265.727 157.673 265.618 156.733C265.509 155.792 265.978 154.897 266.793 154.433C267.535 154.01 268.234 153.528 268.916 152.997C269.247 152.743 269.563 152.486 269.865 152.224C269.887 152.2 269.905 152.19 269.927 152.166L269.969 152.178Z" fill="white"/>
<path d="M97.4273 101.311C97.4273 97.2938 95.8316 93.4415 92.9912 90.6011C90.1509 87.7608 86.2985 86.1651 82.2816 86.1651C78.2648 86.1651 74.4124 87.7608 71.5721 90.6011C68.7317 93.4415 67.136 97.2938 67.136 101.311C67.136 105.328 68.7317 109.18 71.5721 112.02C74.4124 114.861 78.2648 116.456 82.2816 116.456C86.2985 116.456 90.1509 114.861 92.9912 112.02C95.8316 109.18 97.4273 105.328 97.4273 101.311ZM63.6409 101.311C63.6409 96.3669 65.6048 91.6255 69.1006 88.1297C72.5965 84.6339 77.3378 82.6699 82.2816 82.6699C87.2255 82.6699 91.9668 84.6339 95.4627 88.1297C98.9585 91.6255 100.922 96.3669 100.922 101.311C100.922 106.255 98.9585 110.996 95.4627 114.492C91.9668 117.988 87.2255 119.951 82.2816 119.951C77.3378 119.951 72.5965 117.988 69.1006 114.492C65.6048 110.996 63.6409 106.255 63.6409 101.311ZM89.0899 105.126C90.4516 104.806 91.704 106 90.9467 107.172C89.1554 109.947 85.9443 111.796 82.2744 111.796C78.6045 111.796 75.3933 109.947 73.602 107.172C72.8448 106 74.0972 104.806 75.4588 105.126C77.5632 105.621 79.8642 105.891 82.2744 105.891C84.6846 105.891 86.9855 105.621 89.0899 105.126ZM79.9515 96.6505C79.9515 99.2209 78.9103 101.311 77.6215 101.311C76.3326 101.311 75.2914 99.2209 75.2914 96.6505C75.2914 94.0801 76.3326 91.9903 77.6215 91.9903C78.9103 91.9903 79.9515 94.0801 79.9515 96.6505ZM86.9418 101.311C85.653 101.311 84.6117 99.2209 84.6117 96.6505C84.6117 94.0801 85.653 91.9903 86.9418 91.9903C88.2307 91.9903 89.2719 94.0801 89.2719 96.6505C89.2719 99.2209 88.2307 101.311 86.9418 101.311Z" fill="#FFEF62"/>
<path d="M320.534 145.59V136.99C320.534 136.022 319.755 135.243 318.786 135.243C317.818 135.243 317.039 136.022 317.039 136.99V148.102C314.949 149.194 312.568 149.806 310.048 149.806C307.529 149.806 305.148 149.187 303.058 148.102V136.99C303.058 136.022 302.279 135.243 301.311 135.243C300.342 135.243 299.563 136.022 299.563 136.99V145.59C296.694 142.83 294.903 138.956 294.903 134.66C294.903 126.294 301.682 119.515 310.048 119.515C318.415 119.515 325.194 126.294 325.194 134.66C325.194 138.956 323.403 142.83 320.534 145.59ZM310.048 153.301C314.992 153.301 319.734 151.337 323.23 147.841C326.725 144.346 328.689 139.604 328.689 134.66C328.689 129.716 326.725 124.975 323.23 121.479C319.734 117.983 314.992 116.02 310.048 116.02C305.105 116.02 300.363 117.983 296.867 121.479C293.372 124.975 291.408 129.716 291.408 134.66C291.408 139.604 293.372 144.346 296.867 147.841C300.363 151.337 305.105 153.301 310.048 153.301ZM303.029 132.039C303.801 132.039 304.478 132.316 304.879 132.745C305.432 133.335 306.349 133.364 306.939 132.811C307.529 132.257 307.558 131.34 307.005 130.75C305.949 129.621 304.442 129.126 303.029 129.126C301.616 129.126 300.109 129.621 299.053 130.75C298.5 131.34 298.536 132.257 299.119 132.811C299.701 133.364 300.626 133.328 301.18 132.745C301.58 132.323 302.257 132.039 303.029 132.039ZM315.16 132.745C315.561 132.323 316.238 132.039 317.01 132.039C317.782 132.039 318.459 132.316 318.859 132.745C319.413 133.335 320.33 133.364 320.92 132.811C321.51 132.257 321.539 131.34 320.985 130.75C319.93 129.621 318.422 129.126 317.01 129.126C315.597 129.126 314.09 129.621 313.034 130.75C312.481 131.34 312.517 132.257 313.099 132.811C313.682 133.364 314.607 133.328 315.16 132.745ZM306.553 139.321V141.651C306.553 143.58 308.119 145.146 310.048 145.146C311.978 145.146 313.544 143.58 313.544 141.651V139.321C313.544 137.391 311.978 135.825 310.048 135.825C308.119 135.825 306.553 137.391 306.553 139.321Z" fill="#FFEF62"/>
<path d="M115.403 24.5093C115.13 24.2364 114.792 24.0368 114.421 23.9289C114.05 23.821 113.657 23.8084 113.28 23.8921C112.903 23.9759 112.553 24.1533 112.262 24.408C111.971 24.6627 111.749 24.9865 111.617 25.3496L103.973 46.3758C103.847 46.7225 103.807 47.0943 103.854 47.46C103.902 47.8256 104.037 48.1745 104.248 48.4772C104.458 48.7799 104.738 49.0277 105.065 49.1998C105.391 49.3719 105.753 49.4632 106.122 49.4661C106.394 49.4642 106.663 49.4149 106.917 49.3204L127.942 41.6748C128.305 41.5425 128.629 41.3208 128.884 41.0302C129.139 40.7396 129.317 40.3895 129.4 40.0122C129.484 39.6349 129.472 39.2426 129.364 38.8714C129.256 38.5002 129.057 38.1621 128.784 37.8884L115.403 24.5093ZM114.19 44.2001L109.093 39.103L111.01 33.8297L119.464 42.2835L114.19 44.2001ZM106.181 47.1127L108.219 41.519L111.78 45.0797L106.181 47.1127ZM121.885 41.4039L111.889 31.4078L113.782 26.184L127.097 39.4991L121.885 41.4039ZM122.468 27.3302C122.49 26.5425 122.68 25.7688 123.027 25.0612C123.799 23.519 125.255 22.67 127.128 22.67C128.104 22.67 128.73 22.3365 129.116 21.62C129.319 21.2191 129.436 20.78 129.458 20.3311C129.459 20.0221 129.583 19.7263 129.802 19.5086C130.022 19.2909 130.319 19.1693 130.628 19.1704C130.937 19.1716 131.232 19.2955 131.45 19.5148C131.668 19.7341 131.789 20.0309 131.788 20.3399C131.788 22.2127 130.547 25.0001 127.128 25.0001C126.152 25.0001 125.526 25.3336 125.14 26.0501C124.937 26.4509 124.82 26.89 124.798 27.3389C124.797 27.4919 124.767 27.6433 124.708 27.7844C124.649 27.9255 124.562 28.0536 124.454 28.1614C124.345 28.2692 124.216 28.3545 124.075 28.4126C123.933 28.4706 123.782 28.5001 123.629 28.4996C123.476 28.499 123.324 28.4683 123.183 28.4092C123.042 28.3501 122.914 28.2638 122.806 28.1552C122.698 28.0467 122.613 27.9179 122.555 27.7763C122.497 27.6348 122.467 27.4831 122.468 27.3302ZM118.973 22.67V19.1748C118.973 18.8658 119.095 18.5695 119.314 18.351C119.532 18.1325 119.829 18.0098 120.138 18.0098C120.447 18.0098 120.743 18.1325 120.962 18.351C121.18 18.5695 121.303 18.8658 121.303 19.1748V22.67C121.303 22.9789 121.18 23.2753 120.962 23.4938C120.743 23.7123 120.447 23.835 120.138 23.835C119.829 23.835 119.532 23.7123 119.314 23.4938C119.095 23.2753 118.973 22.9789 118.973 22.67ZM133.778 34.6612C133.886 34.7695 133.972 34.898 134.03 35.0393C134.088 35.1807 134.119 35.3323 134.119 35.4853C134.118 35.6383 134.088 35.7898 134.03 35.9311C133.971 36.0725 133.885 36.2009 133.777 36.309C133.669 36.4172 133.54 36.503 133.399 36.5614C133.257 36.6199 133.106 36.65 132.953 36.6499C132.8 36.6499 132.648 36.6197 132.507 36.5611C132.366 36.5024 132.237 36.4166 132.129 36.3083L129.799 33.9782C129.58 33.7596 129.458 33.4631 129.458 33.1539C129.458 32.8448 129.58 32.5483 129.799 32.3297C130.018 32.1111 130.314 31.9882 130.623 31.9882C130.932 31.9882 131.229 32.1111 131.447 32.3297L133.778 34.6612ZM134.487 28.4355L130.992 29.6005C130.699 29.6983 130.379 29.6755 130.102 29.5373C129.826 29.3991 129.616 29.1568 129.518 28.8636C129.42 28.5705 129.443 28.2505 129.581 27.9741C129.719 27.6978 129.962 27.4876 130.255 27.3899L133.75 26.2248C134.043 26.1271 134.363 26.1498 134.639 26.288C134.916 26.4262 135.126 26.6686 135.224 26.9617C135.321 27.2549 135.299 27.5748 135.16 27.8512C135.022 28.1276 134.78 28.3378 134.487 28.4355Z" fill="#FB9C66"/>
<path d="M178.816 52.3988L184.681 59.6421M185.37 53.0877L178.127 58.9532" stroke="#FFB13D" stroke-width="3" stroke-linecap="round" stroke-linejoin="round"/>
<path d="M131.4 76.9944L139.389 81.7948M137.795 75.4001L132.995 83.3892" stroke="#FF0E0E" stroke-linecap="round" stroke-linejoin="round"/>
<path d="M248.052 115.266L253.365 107.608M246.88 108.78L254.538 114.093" stroke="#24FF00" stroke-width="4" stroke-linecap="round" stroke-linejoin="round"/>
<path d="M147.13 41.1396L152.443 33.4815M145.957 34.6543L153.615 39.9669" stroke="#A750FF" stroke-width="2" stroke-linecap="round" stroke-linejoin="round"/>
<path d="M160.922 85.7281C163.496 85.7281 165.583 83.6417 165.583 81.0679C165.583 78.4942 163.496 76.4077 160.922 76.4077C158.349 76.4077 156.262 78.4942 156.262 81.0679C156.262 83.6417 158.349 85.7281 160.922 85.7281Z" stroke="#D971FE" stroke-width="3" stroke-linecap="round" stroke-linejoin="round"/>
<path d="M178.981 19.1746C181.554 19.1746 183.641 17.0882 183.641 14.5144C183.641 11.9407 181.554 9.85425 178.981 9.85425C176.407 9.85425 174.32 11.9407 174.32 14.5144C174.32 17.0882 176.407 19.1746 178.981 19.1746Z" stroke="#BBFF65" stroke-width="2" stroke-linecap="round" stroke-linejoin="round"/>
<path d="M228.495 121.99C231.069 121.99 233.155 119.904 233.155 117.33C233.155 114.756 231.069 112.67 228.495 112.67C225.921 112.67 223.835 114.756 223.835 117.33C223.835 119.904 225.921 121.99 228.495 121.99Z" stroke="#6D96FE" stroke-width="3" stroke-linecap="round" stroke-linejoin="round"/>
<path d="M91.4563 151.699C94.0301 151.699 96.1165 149.613 96.1165 147.039C96.1165 144.465 94.0301 142.379 91.4563 142.379C88.8826 142.379 86.7961 144.465 86.7961 147.039C86.7961 149.613 88.8826 151.699 91.4563 151.699Z" stroke="#FF6161" stroke-width="5" stroke-linecap="round" stroke-linejoin="round"/>
<path d="M189.57 183.322C189.57 182.831 189.299 182.382 188.867 182.149C188.434 181.916 187.91 181.941 187.502 182.215L183.508 184.878C182.892 185.286 182.73 186.11 183.137 186.726C183.545 187.341 184.373 187.504 184.985 187.096L186.907 185.81V197.968H184.244C183.508 197.968 182.913 198.563 182.913 199.3C182.913 200.036 183.508 200.631 184.244 200.631H188.238H192.233C192.969 200.631 193.564 200.036 193.564 199.3C193.564 198.563 192.969 197.968 192.233 197.968H189.57V183.322Z" fill="black"/>
<path d="M131.336 214.944C130.442 214.944 129.581 215.298 128.948 215.935L127.663 217.216C127.143 217.736 126.298 217.736 125.778 217.216C125.258 216.696 125.258 215.852 125.778 215.331L127.064 214.05C128.199 212.918 129.734 212.281 131.336 212.281C134.668 212.281 137.372 214.986 137.372 218.319C137.372 219.921 136.736 221.456 135.604 222.588L129.938 228.259H137.372C138.108 228.259 138.703 228.854 138.703 229.591C138.703 230.327 138.108 230.922 137.372 230.922H126.723C126.186 230.922 125.699 230.598 125.491 230.098C125.283 229.599 125.4 229.029 125.778 228.646L133.72 220.707C134.352 220.075 134.71 219.214 134.71 218.319C134.71 216.455 133.2 214.944 131.336 214.944Z" fill="black"/>
<path d="M237.961 236.04C237.961 235.304 238.556 234.709 239.293 234.709H249.279C249.828 234.709 250.319 235.046 250.519 235.558C250.718 236.069 250.581 236.652 250.178 237.022L244.714 242.032H245.617C248.742 242.032 251.276 244.566 251.276 247.691C251.276 250.816 248.742 253.35 245.617 253.35H242.347C240.583 253.35 238.968 252.351 238.182 250.774L238.103 250.616C237.774 249.958 238.04 249.16 238.698 248.831C239.355 248.502 240.154 248.768 240.483 249.426L240.562 249.584C240.899 250.262 241.594 250.687 242.347 250.687H245.617C247.273 250.687 248.613 249.347 248.613 247.691C248.613 246.035 247.273 244.695 245.617 244.695H241.29C240.741 244.695 240.25 244.358 240.05 243.846C239.85 243.334 239.988 242.752 240.391 242.381L245.854 237.372H239.293C238.556 237.372 237.961 236.777 237.961 236.04Z" fill="black"/>
</g>
<defs>
<clipPath id="clip0_3_77">
<rect width="400" height="400" fill="white"/>
</clipPath>
</defs>
</svg>
