<svg xmlns="http://www.w3.org/2000/svg" xmlns:xlink="http://www.w3.org/1999/xlink" version="1.1" x="0px" y="0px" viewBox="0 0 512 640" style="enable-background:new 0 0 512 512;" xml:space="preserve"><path d="M123.6,169.4c-2-2.7-1.4-6.4,1.2-8.4c2.7-2,6.4-1.4,8.4,1.2l5.2,7l20.1-20.1c2.4-2.4,6.2-2.4,8.5,0c2.4,2.3,2.4,6.1,0,8.5  l-25,25l0,0c-2.6,2.6-6.9,2.3-9-0.7L123.6,169.4z M169.6,141.9c-13.3-13.3-34.8-13.3-48.1,0c-13.3,13.3-13.3,34.8,0,48.1  c13.3,13.3,34.8,13.3,48.1,0C182.9,176.7,182.9,155.2,169.6,141.9L169.6,141.9z M134.1,84.9h22.9c3.3,0,6,2.7,6,6v10.2  c5.6,1.5,11,3.7,16,6.6l7.2-7.2c2.4-2.4,6.2-2.4,8.5,0l16.2,16.2c2.4,2.3,2.4,6.1,0,8.5l-7.2,7.2c2.9,5,5.1,10.4,6.7,16h10.2  c3.3,0,6,2.7,6,6v22.9c0,3.3-2.7,6-6,6h-10.2c-1.5,5.6-3.8,11-6.7,16l7.2,7.2c2.4,2.4,2.4,6.2,0,8.5l-16.2,16.2  c-2.3,2.3-6.1,2.3-8.5,0l-7.2-7.2c-5,2.9-10.4,5.1-16,6.6v10.2c0,3.3-2.7,6-6,6h-22.9c-3.3,0-6-2.7-6-6v-10.2  c-5.6-1.5-11-3.7-16-6.6l-7.2,7.2c-2.3,2.3-6.1,2.3-8.5,0l-16.2-16.2c-2.3-2.4-2.3-6.2,0-8.5l7.2-7.2c-2.9-5-5.1-10.4-6.6-16H70.6  c-3.3,0-6-2.7-6-6v-22.9c0-3.3,2.7-6,6-6h10.2c1.5-5.6,3.7-11,6.6-16l-7.2-7.2c-2.3-2.4-2.3-6.2,0-8.5l16.2-16.2  c2.4-2.4,6.2-2.4,8.5,0l7.2,7.2c5-2.9,10.4-5.1,16-6.6V90.9C128.1,87.6,130.8,84.9,134.1,84.9L134.1,84.9z M371,125.7  c18,0,32.6,14.6,32.6,32.6c0,18-14.6,32.6-32.6,32.6c-18,0-32.6-14.6-32.6-32.6C338.4,140.3,353,125.7,371,125.7L371,125.7z   M385.6,143.8c-12.9-12.9-35.2-3.7-35.2,14.6c0,18.3,22.3,27.5,35.2,14.6C393.7,164.9,393.7,151.8,385.6,143.8L385.6,143.8z   M371,96.9c33.9,0,61.4,27.5,61.4,61.4c0,33.4-39,89.6-56.8,110.9c-2.4,2.9-6.9,2.8-9.2-0.1c-17.9-21.8-56.8-77-56.8-110.8  C309.6,124.4,337.1,96.9,371,96.9L371,96.9z M406,123.4c-19.3-19.3-50.6-19.3-69.9,0c-8.9,8.9-14.5,21.3-14.5,35  c0,27.9,33.8,77.5,49.4,97.5c15.7-20,49.4-69.5,49.4-97.5C420.5,144.7,414.9,132.3,406,123.4L406,123.4z M74.4,87.1  c-2.5,2.2-6.3,1.9-8.4-0.7c-2.2-2.5-1.8-6.3,0.7-8.4c55.3-47.3,140-33.8,178,28.5c4-2.1,8.8,0.9,8.7,5.4l-0.3,12  c-0.1,4.7-5.4,7.4-9.2,4.9l-10.5-6.9c-3.9-2.5-3.5-8.2,0.5-10.3C199.1,56.4,123.6,45.1,74.4,87.1L74.4,87.1z M359.2,54.1  c3.3-0.3,6.2,2.2,6.4,5.5c0.3,3.3-2.2,6.2-5.5,6.5c-54,4.3-95.8,48.1-98.1,102.6v0c-0.2,32.5-13.5,61.9-34.9,83.3  c-20.8,20.7-49.1,33.7-80.5,34.6c-0.2,4.4-5,7.1-8.9,4.8l-10.7-6.2c-4.1-2.4-3.9-8.4,0.3-10.5l0,0l11.3-5.7c4.1-2,8.8,1,8.7,5.6  c27.9-1,53.1-12.6,71.5-31c19.3-19.2,31.2-45.7,31.4-74.9c0-0.1,0-0.3,0-0.4C252.2,108.1,299.2,58.9,359.2,54.1L359.2,54.1z   M459.8,255.3c-1.2,4.3-6.5,5.8-9.8,2.9c-52.4,49.7-136.8,41.2-178.4-18c-1.9-2.7-1.2-6.5,1.5-8.4c2.7-1.9,6.4-1.2,8.3,1.5  c37.2,52.8,112.5,60.9,159.8,16.8c-3.3-3.1-2.1-8.6,2.2-10.1l11.8-3.8c4.8-1.7,9,2.6,7.9,7.2L459.8,255.3z M395.6,51.4  c4.5-1.2,8.6,3,7.3,7.4c68,20.6,102.9,96.5,73.7,161.7c-1.3,3-4.9,4.4-7.9,3c-3-1.4-4.4-4.9-3-7.9c26.3-58.7-5.3-126.9-66-145.4  c-1,4.4-6.4,6.2-9.8,3.1l-9.1-8.1c-4.2-3.5-2.3-9.4,2.1-10.5L395.6,51.4z M39,112.3c-4-2.2-4.1-8.1-0.1-10.4l11.4-6.6  c4.1-2.4,9.2,0.8,9,5.5l0,0l-0.7,12.6c-0.3,4.6-5.4,7.1-9.2,4.7c-29.9,56.1-3.9,126.6,56.1,149.5c3.1,1.2,4.6,4.6,3.5,7.7  c-1.2,3.1-4.6,4.6-7.7,3.5c-58.6-22.3-89.9-86.9-70.6-147C32.9,125,35.7,118.5,39,112.3L39,112.3z M86.6,323.3  c12.8,0.1,25.8,0.1,38.6,0.3c7.1,0.1,12.9,5.4,14.4,12.1c15-13.4,28.6-26.9,47.4-32.5c6.7-2,13.4-6.7,20.9-12.1  c7.3-5.2,15.4-11,25.7-15.8c20.7-9.9,36.6-8.9,46.5-2.7c8.4,5.3,12.7,14.5,11.7,24.3c-1.2,11.3-9.3,23.5-25.5,30.9  c-14.3,7.5-27.3,14.7-36.6,20.5c-4.1,2.6-7.4,4.6-9.6,6c6.5,0.6,21.3,1.6,38.9,3.4c13,1.3,27.3,2.6,40.6,3.4c1.6-0.1,7.8-1.6,9-2.4  l74.5-46.4c14.6-9.1,34.3-11.1,44.6-1.6c3.3,3,5.2,6.9,5.4,11.3c15.1-5.8,33.6-4.5,41.7,6.2c2.3,3.1,3.5,6.7,3.2,10.6  c-0.5,6.1-4.5,12.6-13.3,18.4c-6.3,4.2-15.1,10.2-25.2,17.1c-41.7,28.6-106.7,73.2-130.7,79.8c-7.3,2-140.7-0.7-172-0.7  c-2.4,5.4-7.9,8.8-13.9,8.7c-12.9-0.1-25.8-0.1-38.7-0.3c-8.3-0.1-14.9-7.4-14.7-15.4c0.7-36.2,1.2-72.5,1.8-108.7  C71.5,329.5,78.4,323.3,86.6,323.3L86.6,323.3z M139.8,351.5c-0.5,30-1,60.1-1.5,90.2c31.3,0,160,2.4,168,0.9  c22.4-6.5,85.8-50,126.6-78c10.1-6.9,18.8-12.9,25.3-17.2c8-5.3,11.5-11.1,3.1-14.9c-6.3-2.9-16.2-2.9-26.6,1.9l-79.5,37.1  c-13.4,6.2-80.8-0.3-97.3-2c-19.2-2-36.3-4.7-45.3-7.4c-2.7,0.7-5.6-0.7-6.8-3.3c-3-6.3,6.3-13.7,17.7-20.8c9.8-6.1,23-13.4,37.3-21  c0.2-0.1,0.3-0.2,0.5-0.3c11.9-5.4,17.9-13.7,18.6-21.3c0.5-5.3-1.6-10.1-6.2-13c-6.8-4.3-18.6-4.5-35,3.3  c-18.9,9-33,24.1-48.3,28.7c-17.1,5.1-30.2,18.8-44.7,31.6C143.7,348.1,141.7,349.9,139.8,351.5L139.8,351.5z M325.8,362.2  c7.2,0.1,20.9,0.1,24.3-1.5l68-31.8c2.4-2.8,3.3-5.1,3.1-6.9c-0.3-2.6-3.7-4.3-6.3-4.9c-6.5-1.7-16-0.4-25.3,5.4L325.8,362.2z"/></svg>