<svg width="1920" height="1080" viewBox="0 0 1920 1080" fill="none" xmlns="http://www.w3.org/2000/svg">
<g clip-path="url(#clip0_1_1124)">
<rect width="1920" height="1080" rx="64" fill="#3B4252"/>
<circle cx="1848" cy="69" r="4" transform="rotate(90 1848 69)" fill="#88C0D0"/>
<circle cx="1848" cy="89" r="4" transform="rotate(90 1848 89)" fill="#88C0D0"/>
<circle cx="1848" cy="109" r="4" transform="rotate(90 1848 109)" fill="#88C0D0"/>
<circle cx="1848" cy="129" r="4" transform="rotate(90 1848 129)" fill="#88C0D0"/>
<circle cx="1848" cy="149" r="4" transform="rotate(90 1848 149)" fill="#88C0D0"/>
<circle cx="1848" cy="169" r="4" transform="rotate(90 1848 169)" fill="#88C0D0"/>
<circle cx="1848" cy="189" r="4" transform="rotate(90 1848 189)" fill="#88C0D0"/>
<circle cx="1848" cy="209" r="4" transform="rotate(90 1848 209)" fill="#88C0D0"/>
<circle cx="1848" cy="229" r="4" transform="rotate(90 1848 229)" fill="#88C0D0"/>
<circle cx="1848" cy="249" r="4" transform="rotate(90 1848 249)" fill="#88C0D0"/>
<circle cx="1828" cy="69" r="4" transform="rotate(90 1828 69)" fill="#88C0D0"/>
<circle cx="1828" cy="89" r="4" transform="rotate(90 1828 89)" fill="#88C0D0"/>
<circle cx="1828" cy="109" r="4" transform="rotate(90 1828 109)" fill="#88C0D0"/>
<circle cx="1828" cy="129" r="4" transform="rotate(90 1828 129)" fill="#88C0D0"/>
<circle cx="1828" cy="149" r="4" transform="rotate(90 1828 149)" fill="#88C0D0"/>
<circle cx="1828" cy="169" r="4" transform="rotate(90 1828 169)" fill="#88C0D0"/>
<circle cx="1828" cy="189" r="4" transform="rotate(90 1828 189)" fill="#88C0D0"/>
<circle cx="1828" cy="209" r="4" transform="rotate(90 1828 209)" fill="#88C0D0"/>
<circle cx="1828" cy="229" r="4" transform="rotate(90 1828 229)" fill="#88C0D0"/>
<circle cx="1808" cy="69" r="4" transform="rotate(90 1808 69)" fill="#88C0D0"/>
<circle cx="1808" cy="89" r="4" transform="rotate(90 1808 89)" fill="#88C0D0"/>
<circle cx="1808" cy="109" r="4" transform="rotate(90 1808 109)" fill="#88C0D0"/>
<circle cx="1808" cy="129" r="4" transform="rotate(90 1808 129)" fill="#88C0D0"/>
<circle cx="1808" cy="149" r="4" transform="rotate(90 1808 149)" fill="#88C0D0"/>
<circle cx="1808" cy="169" r="4" transform="rotate(90 1808 169)" fill="#88C0D0"/>
<circle cx="1808" cy="189" r="4" transform="rotate(90 1808 189)" fill="#88C0D0"/>
<circle cx="1808" cy="209" r="4" transform="rotate(90 1808 209)" fill="#88C0D0"/>
<circle cx="1788" cy="69" r="4" transform="rotate(90 1788 69)" fill="#88C0D0"/>
<circle cx="1788" cy="89" r="4" transform="rotate(90 1788 89)" fill="#88C0D0"/>
<circle cx="1788" cy="109" r="4" transform="rotate(90 1788 109)" fill="#88C0D0"/>
<circle cx="1788" cy="129" r="4" transform="rotate(90 1788 129)" fill="#88C0D0"/>
<circle cx="1788" cy="149" r="4" transform="rotate(90 1788 149)" fill="#88C0D0"/>
<circle cx="1788" cy="169" r="4" transform="rotate(90 1788 169)" fill="#88C0D0"/>
<circle cx="1788" cy="189" r="4" transform="rotate(90 1788 189)" fill="#88C0D0"/>
<circle cx="1768" cy="69" r="4" transform="rotate(90 1768 69)" fill="#88C0D0"/>
<circle cx="1768" cy="89" r="4" transform="rotate(90 1768 89)" fill="#88C0D0"/>
<circle cx="1768" cy="109" r="4" transform="rotate(90 1768 109)" fill="#88C0D0"/>
<circle cx="1768" cy="129" r="4" transform="rotate(90 1768 129)" fill="#88C0D0"/>
<circle cx="1768" cy="149" r="4" transform="rotate(90 1768 149)" fill="#88C0D0"/>
<circle cx="1768" cy="169" r="4" transform="rotate(90 1768 169)" fill="#88C0D0"/>
<circle cx="1748" cy="69" r="4" transform="rotate(90 1748 69)" fill="#88C0D0"/>
<circle cx="1748" cy="89" r="4" transform="rotate(90 1748 89)" fill="#88C0D0"/>
<circle cx="1748" cy="109" r="4" transform="rotate(90 1748 109)" fill="#88C0D0"/>
<circle cx="1748" cy="129" r="4" transform="rotate(90 1748 129)" fill="#88C0D0"/>
<circle cx="1748" cy="149" r="4" transform="rotate(90 1748 149)" fill="#88C0D0"/>
<circle cx="1728" cy="69" r="4" transform="rotate(90 1728 69)" fill="#88C0D0"/>
<circle cx="1728" cy="89" r="4" transform="rotate(90 1728 89)" fill="#88C0D0"/>
<circle cx="1728" cy="109" r="4" transform="rotate(90 1728 109)" fill="#88C0D0"/>
<circle cx="1728" cy="129" r="4" transform="rotate(90 1728 129)" fill="#88C0D0"/>
<circle cx="1708" cy="69" r="4" transform="rotate(90 1708 69)" fill="#88C0D0"/>
<circle cx="1708" cy="89" r="4" transform="rotate(90 1708 89)" fill="#88C0D0"/>
<circle cx="1708" cy="109" r="4" transform="rotate(90 1708 109)" fill="#88C0D0"/>
<circle cx="1688" cy="69" r="4" transform="rotate(90 1688 69)" fill="#88C0D0"/>
<circle cx="1688" cy="89" r="4" transform="rotate(90 1688 89)" fill="#88C0D0"/>
<circle cx="1668" cy="69" r="4" transform="rotate(90 1668 69)" fill="#88C0D0"/>
<ellipse cx="0.151863" cy="1080.47" rx="265.169" ry="259.699" transform="rotate(147.52 0.151863 1080.47)" fill="#88C0D0"/>
<circle cx="960" cy="504" r="200" fill="#D9D9D9"/>
<g filter="url(#filter0_d_1_1124)">
<path d="M1040 241H880C853.49 241 832 262.49 832 289V673C832 699.51 853.49 721 880 721H1040C1066.51 721 1088 699.51 1088 673V289C1088 262.49 1066.51 241 1040 241Z" fill="#D9D9D9" stroke="black" stroke-width="16" stroke-linecap="round" stroke-linejoin="round"/>
<path d="M880 241H904C906.122 241 908.157 241.843 909.657 243.343C911.157 244.843 912 246.878 912 249C912 253.243 913.686 257.313 916.686 260.314C919.687 263.314 923.757 265 928 265H992C996.243 265 1000.31 263.314 1003.31 260.314C1006.31 257.313 1008 253.243 1008 249C1008 246.878 1008.84 244.843 1010.34 243.343C1011.84 241.843 1013.88 241 1016 241H1040" stroke="black" stroke-width="16" stroke-linecap="round" stroke-linejoin="round"/>
<path d="M968 405L967.4 405.2L972.6 412.2L995 424.2V419.2L968 405ZM965.6 406.2L964 407V432H971V413.4L965.6 406.2ZM973 414.6V431L977 428.4V425C977 424.4 977.4 424 978 424C978.6 424 979 424.4 979 425V429C979 429.4 978.8 429.6 978.6 429.8L973 433.6V437C973 437 973 437 973 437.2V437.4V440.6L978.6 444.4C978.8 444.6 979 445 979 445.2V449.2C979 450.6 977 450.6 977 449.2V445.8L973 443.2V459.6L996.4 447L995.6 446.2H982C980.8 446.2 980.6 444.4 981.8 444.2C981.8 444.2 981.8 444.2 982 444.2H996C996.2 444.2 996.6 444.4 996.8 444.4L998.6 446H1003.2V441.8L984 438C982.8 438 982.6 436.4 983.6 436C983.6 436 983.8 436 984 436L996.2 433.2C995.6 432.6 995.2 431.8 995.2 431V430H982C980.6 430 980.6 428 982 428H995V426.6L973 414.6ZM998 416C997.4 416 997 416.4 997 417V431C997 431.6 997.4 432 998 432H1001.8H1002C1002.6 432 1003 431.6 1003 431V419V417C1003 416.4 1002.6 416 1002 416H998ZM1036 417L1013 420V432H1033.8L1039.6 430C1039.6 430 1039.8 430 1040 430V422L1024.2 424C1022.8 424.2 1022.6 422.2 1024 422L1040 420V419L1036 417ZM1006 418C1005.4 418 1005 418.4 1005 419V431V452C1005 452.6 1004.6 453 1004 453C1003.6 453 1003.2 452.8 1003 452.4L995 456.8L996.8 460.6C996.8 460.8 997 461 996.8 461.2L995 472.4L1000 474H1003.6L1008.6 472.4L1006.8 461.2C1006.8 461 1006.8 460.6 1007 460.4L1010.8 454.6V433V419C1010.8 418.4 1010.4 418 1009.8 418H1006ZM1040 432L1035 433.6V437V437.2V440.4L1040 442V437V432ZM1003 433.8C1002.8 433.8 1002.6 434 1002.2 434L988.8 437L1003 439.8V433.8ZM964 434V437V440H971V437.2V437V434H964ZM1013 434V440H1033V437V436.8V434H1013ZM964 442V467L965.6 467.8L971 460.6V442H964ZM1013 442V452.4L1036 457L1040 455V454C1040 454 1040 454 1039.8 454L1023.8 452C1022.6 451.8 1022.6 450 1023.8 450H1024L1039.8 452V444C1039.6 444 1039.6 444 1039.4 444L1033.6 442H1013ZM998.2 448L972.8 461.8L972.6 462L967.4 468.8L968 469L1002 451H1003V448H998.2Z" fill="black"/>
<path d="M902 408C902 406.337 900.663 405 899 405C897.337 405 896 406.337 896 408V413C891.587 413 888 416.587 888 421H883C881.337 421 880 422.337 880 424C880 425.663 881.337 427 883 427H888V434H883C881.337 434 880 435.337 880 437C880 438.662 881.337 440 883 440H888V447H883C881.337 447 880 448.338 880 450C880 451.662 881.337 453 883 453H888C888 457.412 891.587 461 896 461V466C896 467.662 897.337 469 899 469C900.663 469 902 467.662 902 466V461H909V466C909 467.662 910.337 469 912 469C913.662 469 915 467.662 915 466V461H922V466C922 467.662 923.338 469 925 469C926.662 469 928 467.662 928 466V461C932.412 461 936 457.412 936 453H941C942.662 453 944 451.662 944 450C944 448.338 942.662 447 941 447H936V440H941C942.662 440 944 438.662 944 437C944 435.337 942.662 434 941 434H936V427H941C942.662 427 944 425.663 944 424C944 422.337 942.662 421 941 421H936C936 416.587 932.412 413 928 413V408C928 406.337 926.662 405 925 405C923.338 405 922 406.337 922 408V413H915V408C915 406.337 913.662 405 912 405C910.337 405 909 406.337 909 408V413H902V408ZM900 421H924C926.213 421 928 422.788 928 425V449C928 451.213 926.213 453 924 453H900C897.788 453 896 451.213 896 449V425C896 422.788 897.788 421 900 421ZM924 425H900V449H924V425Z" fill="black"/>
<path d="M997.5 537.5V543.75H947.5V537.5H997.5ZM919.375 525C914.199 525 910 529.199 910 534.375V546.875C910 552.051 914.199 556.25 919.375 556.25H1000.62C1005.8 556.25 1010 552.051 1010 546.875V534.375C1010 529.199 1005.8 525 1000.62 525H919.375Z" fill="black"/>
</g>
<path d="M339.144 935.896C333.256 935.896 327.965 934.872 323.272 932.824C318.664 930.691 315.037 927.789 312.392 924.12C309.747 920.365 308.381 916.056 308.296 911.192H320.712C321.139 915.373 322.845 918.915 325.832 921.816C328.904 924.632 333.341 926.04 339.144 926.04C344.691 926.04 349.043 924.675 352.2 921.944C355.443 919.128 357.064 915.544 357.064 911.192C357.064 907.779 356.125 905.005 354.248 902.872C352.371 900.739 350.024 899.117 347.208 898.008C344.392 896.899 340.595 895.704 335.816 894.424C329.928 892.888 325.192 891.352 321.608 889.816C318.109 888.28 315.08 885.891 312.52 882.648C310.045 879.32 308.808 874.883 308.808 869.336C308.808 864.472 310.045 860.163 312.52 856.408C314.995 852.653 318.451 849.752 322.888 847.704C327.411 845.656 332.573 844.632 338.376 844.632C346.739 844.632 353.565 846.723 358.856 850.904C364.232 855.085 367.261 860.632 367.944 867.544H355.144C354.717 864.131 352.925 861.144 349.768 858.584C346.611 855.939 342.429 854.616 337.224 854.616C332.36 854.616 328.392 855.896 325.32 858.456C322.248 860.931 320.712 864.429 320.712 868.952C320.712 872.195 321.608 874.84 323.4 876.888C325.277 878.936 327.539 880.515 330.184 881.624C332.915 882.648 336.712 883.843 341.576 885.208C347.464 886.829 352.2 888.451 355.784 890.072C359.368 891.608 362.44 894.04 365 897.368C367.56 900.611 368.84 905.048 368.84 910.68C368.84 915.032 367.688 919.128 365.384 922.968C363.08 926.808 359.667 929.923 355.144 932.312C350.621 934.701 345.288 935.896 339.144 935.896ZM400.189 874.456V915.8C400.189 919.213 400.914 921.645 402.365 923.096C403.816 924.461 406.333 925.144 409.917 925.144H418.493V935H407.997C401.512 935 396.648 933.507 393.405 930.52C390.162 927.533 388.541 922.627 388.541 915.8V874.456H379.453V864.856H388.541V847.192H400.189V864.856H418.493V874.456H400.189ZM463.198 936.152C456.627 936.152 450.654 934.659 445.278 931.672C439.987 928.685 435.806 924.461 432.734 919C429.747 913.453 428.254 907.053 428.254 899.8C428.254 892.632 429.79 886.317 432.862 880.856C436.019 875.309 440.286 871.085 445.662 868.184C451.038 865.197 457.054 863.704 463.71 863.704C470.366 863.704 476.382 865.197 481.758 868.184C487.134 871.085 491.358 875.267 494.43 880.728C497.587 886.189 499.166 892.547 499.166 899.8C499.166 907.053 497.545 913.453 494.302 919C491.145 924.461 486.835 928.685 481.374 931.672C475.913 934.659 469.854 936.152 463.198 936.152ZM463.198 925.912C467.379 925.912 471.305 924.931 474.974 922.968C478.643 921.005 481.587 918.061 483.806 914.136C486.11 910.211 487.262 905.432 487.262 899.8C487.262 894.168 486.153 889.389 483.934 885.464C481.715 881.539 478.814 878.637 475.23 876.76C471.646 874.797 467.763 873.816 463.582 873.816C459.315 873.816 455.39 874.797 451.806 876.76C448.307 878.637 445.491 881.539 443.358 885.464C441.225 889.389 440.158 894.168 440.158 899.8C440.158 905.517 441.182 910.339 443.23 914.264C445.363 918.189 448.179 921.133 451.678 923.096C455.177 924.973 459.017 925.912 463.198 925.912ZM526.129 876.248C528.177 872.237 531.078 869.123 534.833 866.904C538.673 864.685 543.324 863.576 548.785 863.576V875.608H545.713C532.657 875.608 526.129 882.691 526.129 896.856V935H514.481V864.856H526.129V876.248ZM646.583 863.576C652.044 863.576 656.908 864.728 661.175 867.032C665.442 869.251 668.812 872.621 671.287 877.144C673.762 881.667 674.999 887.171 674.999 893.656V935H663.479V895.32C663.479 888.323 661.73 882.989 658.231 879.32C654.818 875.565 650.167 873.688 644.279 873.688C638.22 873.688 633.399 875.651 629.815 879.576C626.231 883.416 624.439 889.005 624.439 896.344V935H612.919V895.32C612.919 888.323 611.17 882.989 607.671 879.32C604.258 875.565 599.607 873.688 593.719 873.688C587.66 873.688 582.839 875.651 579.255 879.576C575.671 883.416 573.879 889.005 573.879 896.344V935H562.231V864.856H573.879V874.968C576.183 871.299 579.255 868.483 583.095 866.52C587.02 864.557 591.33 863.576 596.023 863.576C601.911 863.576 607.116 864.899 611.639 867.544C616.162 870.189 619.532 874.072 621.751 879.192C623.714 874.243 626.956 870.403 631.479 867.672C636.002 864.941 641.036 863.576 646.583 863.576ZM738.778 889.048C742.021 889.56 744.965 890.883 747.61 893.016C750.341 895.149 752.474 897.795 754.01 900.952C755.631 904.109 756.442 907.48 756.442 911.064C756.442 915.587 755.29 919.683 752.986 923.352C750.682 926.936 747.311 929.795 742.874 931.928C738.522 933.976 733.359 935 727.386 935H694.106V845.784H726.106C732.165 845.784 737.327 846.808 741.594 848.856C745.861 850.819 749.061 853.507 751.194 856.92C753.327 860.333 754.394 864.173 754.394 868.44C754.394 873.731 752.943 878.125 750.042 881.624C747.226 885.037 743.471 887.512 738.778 889.048ZM705.754 884.312H725.338C730.799 884.312 735.023 883.032 738.01 880.472C740.997 877.912 742.49 874.371 742.49 869.848C742.49 865.325 740.997 861.784 738.01 859.224C735.023 856.664 730.714 855.384 725.082 855.384H705.754V884.312ZM726.362 925.4C732.165 925.4 736.687 924.035 739.93 921.304C743.173 918.573 744.794 914.776 744.794 909.912C744.794 904.963 743.087 901.08 739.674 898.264C736.261 895.363 731.695 893.912 725.978 893.912H705.754V925.4H726.362ZM784.254 876.248C786.302 872.237 789.203 869.123 792.958 866.904C796.798 864.685 801.449 863.576 806.91 863.576V875.608H803.838C790.782 875.608 784.254 882.691 784.254 896.856V935H772.606V864.856H784.254V876.248ZM884.356 897.24C884.356 899.459 884.228 901.805 883.972 904.28H827.908C828.335 911.192 830.681 916.611 834.948 920.536C839.3 924.376 844.548 926.296 850.692 926.296C855.727 926.296 859.908 925.144 863.236 922.84C866.649 920.451 869.039 917.293 870.404 913.368H882.948C881.071 920.109 877.316 925.613 871.684 929.88C866.052 934.061 859.055 936.152 850.692 936.152C844.036 936.152 838.063 934.659 832.772 931.672C827.567 928.685 823.471 924.461 820.484 919C817.497 913.453 816.004 907.053 816.004 899.8C816.004 892.547 817.455 886.189 820.356 880.728C823.257 875.267 827.311 871.085 832.516 868.184C837.807 865.197 843.865 863.704 850.692 863.704C857.348 863.704 863.236 865.155 868.356 868.056C873.476 870.957 877.401 874.968 880.132 880.088C882.948 885.123 884.356 890.84 884.356 897.24ZM872.324 894.808C872.324 890.371 871.343 886.573 869.38 883.416C867.417 880.173 864.729 877.741 861.316 876.12C857.988 874.413 854.276 873.56 850.18 873.56C844.292 873.56 839.257 875.437 835.076 879.192C830.98 882.947 828.633 888.152 828.036 894.808H872.324ZM895.379 899.672C895.379 892.504 896.83 886.232 899.731 880.856C902.632 875.395 906.6 871.171 911.635 868.184C916.755 865.197 922.43 863.704 928.659 863.704C934.803 863.704 940.136 865.027 944.659 867.672C949.182 870.317 952.552 873.645 954.771 877.656V864.856H966.547V935H954.771V921.944C952.467 926.04 949.011 929.453 944.403 932.184C939.88 934.829 934.59 936.152 928.531 936.152C922.302 936.152 916.67 934.616 911.635 931.544C906.6 928.472 902.632 924.163 899.731 918.616C896.83 913.069 895.379 906.755 895.379 899.672ZM954.771 899.8C954.771 894.509 953.704 889.901 951.571 885.976C949.438 882.051 946.536 879.064 942.867 877.016C939.283 874.883 935.315 873.816 930.963 873.816C926.611 873.816 922.643 874.84 919.059 876.888C915.475 878.936 912.616 881.923 910.483 885.848C908.35 889.773 907.283 894.381 907.283 899.672C907.283 905.048 908.35 909.741 910.483 913.752C912.616 917.677 915.475 920.707 919.059 922.84C922.643 924.888 926.611 925.912 930.963 925.912C935.315 925.912 939.283 924.888 942.867 922.84C946.536 920.707 949.438 917.677 951.571 913.752C953.704 909.741 954.771 905.091 954.771 899.8ZM1025.4 935L997.879 904.024V935H986.231V840.28H997.879V895.96L1024.89 864.856H1041.14L1008.12 899.8L1041.27 935H1025.4ZM1116.11 897.24C1116.11 899.459 1115.98 901.805 1115.72 904.28H1059.66C1060.08 911.192 1062.43 916.611 1066.7 920.536C1071.05 924.376 1076.3 926.296 1082.44 926.296C1087.48 926.296 1091.66 925.144 1094.99 922.84C1098.4 920.451 1100.79 917.293 1102.15 913.368H1114.7C1112.82 920.109 1109.07 925.613 1103.43 929.88C1097.8 934.061 1090.8 936.152 1082.44 936.152C1075.79 936.152 1069.81 934.659 1064.52 931.672C1059.32 928.685 1055.22 924.461 1052.23 919C1049.25 913.453 1047.75 907.053 1047.75 899.8C1047.75 892.547 1049.2 886.189 1052.11 880.728C1055.01 875.267 1059.06 871.085 1064.27 868.184C1069.56 865.197 1075.62 863.704 1082.44 863.704C1089.1 863.704 1094.99 865.155 1100.11 868.056C1105.23 870.957 1109.15 874.968 1111.88 880.088C1114.7 885.123 1116.11 890.84 1116.11 897.24ZM1104.07 894.808C1104.07 890.371 1103.09 886.573 1101.13 883.416C1099.17 880.173 1096.48 877.741 1093.07 876.12C1089.74 874.413 1086.03 873.56 1081.93 873.56C1076.04 873.56 1071.01 875.437 1066.83 879.192C1062.73 882.947 1060.38 888.152 1059.79 894.808H1104.07ZM1143.13 876.248C1145.18 872.237 1148.08 869.123 1151.83 866.904C1155.67 864.685 1160.32 863.576 1165.79 863.576V875.608H1162.71C1149.66 875.608 1143.13 882.691 1143.13 896.856V935H1131.48V864.856H1143.13V876.248ZM1261.74 935L1225 894.296V935H1213.36V845.784H1225V887.128L1261.87 845.784H1276.59L1236.14 890.456L1276.97 935H1261.74ZM1353.98 897.24C1353.98 899.459 1353.85 901.805 1353.6 904.28H1297.53C1297.96 911.192 1300.31 916.611 1304.57 920.536C1308.93 924.376 1314.17 926.296 1320.32 926.296C1325.35 926.296 1329.53 925.144 1332.86 922.84C1336.27 920.451 1338.66 917.293 1340.03 913.368H1352.57C1350.7 920.109 1346.94 925.613 1341.31 929.88C1335.68 934.061 1328.68 936.152 1320.32 936.152C1313.66 936.152 1307.69 934.659 1302.4 931.672C1297.19 928.685 1293.1 924.461 1290.11 919C1287.12 913.453 1285.63 907.053 1285.63 899.8C1285.63 892.547 1287.08 886.189 1289.98 880.728C1292.88 875.267 1296.94 871.085 1302.14 868.184C1307.43 865.197 1313.49 863.704 1320.32 863.704C1326.97 863.704 1332.86 865.155 1337.98 868.056C1343.1 870.957 1347.03 874.968 1349.76 880.088C1352.57 885.123 1353.98 890.84 1353.98 897.24ZM1341.95 894.808C1341.95 890.371 1340.97 886.573 1339.01 883.416C1337.04 880.173 1334.35 877.741 1330.94 876.12C1327.61 874.413 1323.9 873.56 1319.81 873.56C1313.92 873.56 1308.88 875.437 1304.7 879.192C1300.61 882.947 1298.26 888.152 1297.66 894.808H1341.95ZM1381 876.248C1383.05 872.237 1385.95 869.123 1389.71 866.904C1393.55 864.685 1398.2 863.576 1403.66 863.576V875.608H1400.59C1387.53 875.608 1381 882.691 1381 896.856V935H1369.36V864.856H1381V876.248ZM1451.28 863.576C1459.82 863.576 1466.73 866.179 1472.02 871.384C1477.31 876.504 1479.95 883.928 1479.95 893.656V935H1468.43V895.32C1468.43 888.323 1466.68 882.989 1463.19 879.32C1459.69 875.565 1454.91 873.688 1448.85 873.688C1442.71 873.688 1437.8 875.608 1434.13 879.448C1430.55 883.288 1428.75 888.877 1428.75 896.216V935H1417.11V864.856H1428.75V874.84C1431.06 871.256 1434.17 868.483 1438.1 866.52C1442.11 864.557 1446.5 863.576 1451.28 863.576ZM1562.98 897.24C1562.98 899.459 1562.85 901.805 1562.6 904.28H1506.53C1506.96 911.192 1509.31 916.611 1513.57 920.536C1517.93 924.376 1523.17 926.296 1529.32 926.296C1534.35 926.296 1538.53 925.144 1541.86 922.84C1545.27 920.451 1547.66 917.293 1549.03 913.368H1561.57C1559.7 920.109 1555.94 925.613 1550.31 929.88C1544.68 934.061 1537.68 936.152 1529.32 936.152C1522.66 936.152 1516.69 934.659 1511.4 931.672C1506.19 928.685 1502.1 924.461 1499.11 919C1496.12 913.453 1494.63 907.053 1494.63 899.8C1494.63 892.547 1496.08 886.189 1498.98 880.728C1501.88 875.267 1505.94 871.085 1511.14 868.184C1516.43 865.197 1522.49 863.704 1529.32 863.704C1535.97 863.704 1541.86 865.155 1546.98 868.056C1552.1 870.957 1556.03 874.968 1558.76 880.088C1561.57 885.123 1562.98 890.84 1562.98 897.24ZM1550.95 894.808C1550.95 890.371 1549.97 886.573 1548.01 883.416C1546.04 880.173 1543.35 877.741 1539.94 876.12C1536.61 874.413 1532.9 873.56 1528.81 873.56C1522.92 873.56 1517.88 875.437 1513.7 879.192C1509.61 882.947 1507.26 888.152 1506.66 894.808H1550.95ZM1590 840.28V935H1578.36V840.28H1590Z" fill="white"/>
<path d="M1146.56 691.379C1152.94 691.379 1158.11 686.146 1158.11 679.69C1158.11 673.234 1152.94 668 1146.56 668C1140.17 668 1135 673.234 1135 679.69C1135 686.146 1140.17 691.379 1146.56 691.379Z" stroke="#FF5757" stroke-width="5" stroke-linecap="round" stroke-linejoin="round"/>
<path d="M731.556 572.379C737.939 572.379 743.113 567.146 743.113 560.69C743.113 554.234 737.939 549 731.556 549C725.174 549 720 554.234 720 560.69C720 567.146 725.174 572.379 731.556 572.379Z" stroke="#53FABE" stroke-width="5" stroke-linecap="round" stroke-linejoin="round"/>
<path d="M1201.17 569.266L1217.51 585.798M1217.51 569.266L1201.17 585.798" stroke="#58F785" stroke-width="3" stroke-linecap="round" stroke-linejoin="round"/>
<path d="M1188.56 393V416.379M1200.11 404.69H1177" stroke="#5B6AF8" stroke-width="8" stroke-linecap="round" stroke-linejoin="round"/>
<path d="M682.649 479.324V502.704M694.205 491.014H671.093" stroke="#F97C7C" stroke-width="5" stroke-linecap="round" stroke-linejoin="round"/>
<path d="M994.556 752V775.379M1006.11 763.69H983" stroke="#5653FF" stroke-width="3" stroke-linecap="round" stroke-linejoin="round"/>
<path d="M872.172 791.266L888.515 807.797M888.515 791.266L872.172 807.797" stroke="#61F05E" stroke-width="3" stroke-linecap="round" stroke-linejoin="round"/>
<path d="M772.18 679.885C771.802 697.831 777.956 715.327 789.476 729.056C800.995 742.784 817.079 751.79 834.677 754.366M717.883 675.202C716.385 707.694 727.166 739.611 748.043 764.491C768.92 789.371 798.333 805.356 830.329 809.21" stroke="#FDA9FF" stroke-width="8" stroke-linecap="round" stroke-linejoin="round"/>
<path d="M1152.48 262.61C1152.85 244.663 1146.7 227.167 1135.18 213.439C1123.66 199.71 1107.58 190.704 1089.98 188.129M1206.77 267.292C1208.27 234.8 1197.49 202.884 1176.61 178.004C1155.74 153.124 1126.32 137.139 1094.33 133.285" stroke="#FDA9FF" stroke-width="8" stroke-linecap="round" stroke-linejoin="round"/>
<path d="M675.172 224.266L691.515 240.798M691.515 224.266L675.172 240.798" stroke="#F7AB52" stroke-width="3" stroke-linecap="round" stroke-linejoin="round"/>
</g>
<defs>
<filter id="filter0_d_1_1124" x="694" y="220" width="532" height="532" filterUnits="userSpaceOnUse" color-interpolation-filters="sRGB">
<feFlood flood-opacity="0" result="BackgroundImageFix"/>
<feColorMatrix in="SourceAlpha" type="matrix" values="0 0 0 0 0 0 0 0 0 0 0 0 0 0 0 0 0 0 127 0" result="hardAlpha"/>
<feOffset dy="5"/>
<feGaussianBlur stdDeviation="5"/>
<feComposite in2="hardAlpha" operator="out"/>
<feColorMatrix type="matrix" values="0 0 0 0 0 0 0 0 0 0 0 0 0 0 0 0 0 0 0.26 0"/>
<feBlend mode="normal" in2="BackgroundImageFix" result="effect1_dropShadow_1_1124"/>
<feBlend mode="normal" in="SourceGraphic" in2="effect1_dropShadow_1_1124" result="shape"/>
</filter>
<clipPath id="clip0_1_1124">
<rect width="1920" height="1080" rx="64" fill="white"/>
</clipPath>
</defs>
</svg>
